<?xml version="1.0" encoding="utf-8"?>
<!-- Generator: Adobe Illustrator 25.3.1, SVG Export Plug-In . SVG Version: 6.00 Build 0)  -->
<svg version="1.1" id="레이어_1" xmlns="http://www.w3.org/2000/svg" xmlns:xlink="http://www.w3.org/1999/xlink" x="0px"
	 y="0px" viewBox="0 0 195 148.2" style="enable-background:new 0 0 195 148.2;" xml:space="preserve">
<style type="text/css">
	.st0{fill:#FFBB00;}
	.st1{enable-background:new    ;}
	.st2{fill:#FFFFFF;}
</style>
<g>
	<path class="st0" d="M0,148.3V97c0-8.3,6.7-15,15-15l0,0h13.8c-0.5-3.6-0.8-7.3-0.8-10.9C28,31.8,59.3,0,97.8,0
		s69.8,31.8,69.8,71.1c0,3.7-0.3,7.3-0.8,10.9H180c8.3,0,15,6.7,15,15l0,0v51.2H0z"/>
	<g class="st1">
		<path class="st2" d="M95.3,71.4c3.9,0,6.9,1.8,6.9,5.8c0,4-3,5.8-6.3,5.8H66.5c-3.9,0-6.9-1.8-6.9-5.8c0-1.8,1.1-3.4,2-4.5
			c7.3-8.7,15.2-16.6,21.9-26.3c1.6-2.3,3.1-5,3.1-8.2c0-3.6-2.7-6.8-6.3-6.8c-10.1,0-5.3,14.3-13.7,14.3c-4.2,0-6.4-3-6.4-6.4
			c0-11.1,9.9-20,20.7-20c10.8,0,19.5,7.1,19.5,18.3c0,12.2-13.6,24.4-21.1,33.8H95.3z"/>
	</g>
	<g class="st1">
		<path class="st2" d="M125.9,74.2c0,0.7-0.3,1-1,1l-15.4,0.4c-0.8,0-1-0.3-1-1l-0.3-17.2c0-0.7,0.3-1,1-1l16.1-0.4c0.8,0,1,0.3,1,1
			v2.3c0,0.7-0.3,1-1,1L113,60.5l0.1,10.6l11.8-0.3c0.8,0,1,0.3,1,1V74.2z M114.4,90c-0.8,0-1-0.3-1-1V78.8c0-0.7,0.3-1,1-1h2.6
			c0.8,0,1,0.3,1,1v6.8l16.1-0.3c0.7,0,0.9,0.2,0.9,1v2.4c0,0.8-0.2,1-0.9,1L114.4,90z M135.1,69.3v7.4c0,0.7-0.3,1-1,1h-2.6
			c-0.8,0-1-0.3-1-1V57.3c0-0.7,0.3-1,1-1h2.6c0.8,0,1,0.3,1,1V65l2.8-0.1c0.7,0,0.9,0.2,0.9,1v2.4c0,0.8-0.2,0.9-0.9,1L135.1,69.3z
			"/>
	</g>
	<g class="st1">
		<path class="st2" d="M44.3,117.7l3.2,9.3l-8.1-5.9l-7.9,5.8l3-9.3l-7.4-5.6h9.3l3-8.7l3.1,8.7h9.3L44.3,117.7z"/>
		<path class="st2" d="M70.4,109.1c0.6-0.1,0.6-0.4,0.6-1v-1l-7,0.1c-0.5,0-0.7-0.1-0.7-0.8v-1.8c0-0.6,0.2-0.8,0.7-0.8l17.6-0.3
			c0.6,0,0.7,0.1,0.7,0.8v1.8c0,0.7-0.2,0.8-0.7,0.8l-7,0.1v1c0,0.7,0,0.9,0.6,1l6.9,1.5c0.6,0.1,0.8,0.3,0.5,0.9l-0.6,1.7
			c-0.2,0.6-0.4,0.6-1,0.5l-8.4-1.8l-8.3,2.1c-0.6,0.1-0.7,0.1-0.9-0.4l-0.6-1.7c-0.2-0.6-0.1-0.8,0.5-0.9L70.4,109.1z M71,115.4
			V114c0-0.6,0.2-0.8,0.8-0.8h2c0.6,0,0.8,0.2,0.8,0.8v1.4l7.1-0.1c0.6,0,0.7,0.1,0.7,0.8v1.8c0,0.7-0.2,0.8-0.7,0.8l-18,0.3
			c-0.5,0-0.7-0.1-0.7-0.8v-1.8c0-0.6,0.2-0.8,0.7-0.8L71,115.4z M65.5,125.7c0-3,2.3-5.4,7.3-5.4c5.1,0,7.3,2.4,7.3,5.4
			c0,3-2.3,5.4-7.3,5.4C67.8,131.1,65.5,128.7,65.5,125.7z M76.4,125.7c0-1.4-1.1-2.3-3.5-2.3c-2.4,0-3.5,1-3.5,2.3s1.1,2.3,3.5,2.3
			C75.3,128,76.4,127.1,76.4,125.7z"/>
		<path class="st2" d="M91.6,104.7V103c0-0.6,0.2-0.8,0.8-0.8h2c0.6,0,0.8,0.2,0.8,0.8v1.6l5.1-0.1c0.6,0,0.7,0.1,0.7,0.8v1.8
			c0,0.7-0.2,0.8-0.7,0.8l-14,0.3c-0.5,0-0.7-0.1-0.7-0.8v-1.8c0-0.6,0.2-0.8,0.7-0.8L91.6,104.7z M86.5,114.3
			c0-3.2,2.6-4.9,7.2-4.9c4.6,0,7.2,1.7,7.2,4.9s-2.6,4.9-7.2,4.9C89.1,119.2,86.5,117.5,86.5,114.3z M97.2,114.3c0-1.4-1.4-2-3.5-2
			c-2.1,0-3.5,0.6-3.5,2s1.4,2,3.5,2C95.8,116.2,97.2,115.6,97.2,114.3z M91.8,130.5c-0.6,0-0.8-0.2-0.8-0.8l-0.3-8.2
			c0-0.6,0.2-0.8,0.8-0.8h2c0.6,0,0.8,0.2,0.8,0.8l0,1.2l8.4-0.2l0.1-1.3c0-0.6,0.2-0.8,0.8-0.8h2c0.6,0,0.8,0.2,0.8,0.8l-0.3,8.2
			c0,0.6-0.2,0.8-0.8,0.8L91.8,130.5z M94.5,127.4l8.1-0.2l0.1-1.6l-8.2,0.2L94.5,127.4z M107.3,113.1v4.9c0,0.6-0.2,0.8-0.8,0.8h-2
			c-0.6,0-0.8-0.2-0.8-0.8v-13.1c0-0.6,0.2-0.8,0.8-0.8h2c0.6,0,0.8,0.2,0.8,0.8v4.8l2.2-0.1c0.6,0,0.7,0.1,0.7,0.8v1.9
			c0,0.6-0.2,0.7-0.7,0.8L107.3,113.1z"/>
		<path class="st2" d="M120.6,107.3c0.6-0.3,0.6-0.4,0.6-1v-2c0-0.6,0.2-0.8,0.8-0.8h2c0.6,0,0.8,0.2,0.8,0.8v1.9
			c0,0.7,0.1,0.8,0.6,1l6.9,3.4c0.6,0.3,0.8,0.4,0.5,1.1l-0.9,1.6c-0.3,0.6-0.5,0.6-1.1,0.3l-7.9-3.9l-7.9,4.2
			c-0.6,0.3-0.8,0.1-1-0.3l-0.9-1.6c-0.3-0.6-0.2-0.7,0.4-1L120.6,107.3z M121.2,115.4v-2.6c0-0.6,0.2-0.8,0.8-0.8h2
			c0.6,0,0.8,0.2,0.8,0.8v2.5l7.1-0.1c0.6,0,0.7,0.1,0.7,0.8v1.8c0,0.7-0.2,0.8-0.7,0.8l-18,0.3c-0.5,0-0.7-0.1-0.7-0.8v-1.8
			c0-0.6,0.2-0.8,0.7-0.8L121.2,115.4z M115.7,125.7c0-3,2.3-5.4,7.3-5.4s7.3,2.4,7.3,5.4c0,3-2.3,5.4-7.3,5.4
			C118,131.1,115.7,128.7,115.7,125.7z M126.6,125.7c0-1.4-1.1-2.3-3.5-2.3s-3.5,1-3.5,2.3s1.1,2.3,3.5,2.3S126.6,127.1,126.6,125.7
			z"/>
		<path class="st2" d="M161.3,117.7l3.2,9.3l-8.1-5.9l-7.9,5.8l3-9.3l-7.4-5.6h9.3l3-8.7l3.1,8.7h9.3L161.3,117.7z"/>
	</g>
</g>
</svg>
