<?xml version="1.0" encoding="utf-8"?>
<!-- Generator: Adobe Illustrator 25.3.1, SVG Export Plug-In . SVG Version: 6.00 Build 0)  -->
<svg version="1.1" id="레이어_1" xmlns="http://www.w3.org/2000/svg" xmlns:xlink="http://www.w3.org/1999/xlink" x="0px"
	 y="0px" viewBox="0 0 389 110" style="enable-background:new 0 0 389 110;" xml:space="preserve">
<style type="text/css">
	.st0{fill:#69D773;}
	.st1{fill:#F98C56;}
	.st2{enable-background:new    ;}
	.st3{fill:#FFFFFF;}
</style>
<path class="st0" d="M24,0h341c13.3,0,24,10.7,24,24v86H0V24C0,10.7,10.7,0,24,0z"/>
<path class="st1" d="M38,0h59v60H38V0z"/>
<g class="st2">
	<path class="st3" d="M55.1,38.8c1.3-1.3,2.8-2.6,4.5-4c1.6-1.3,3.2-2.7,4.7-4.2c1.4-1.4,2.7-3.1,3.7-4.8c1-1.7,1.5-3.6,1.5-5.8
		c0-0.7-0.1-1.2-0.4-1.8c-0.3-0.5-0.7-0.9-1.1-1.3c-0.5-0.3-1-0.6-1.5-0.8c-0.6-0.1-1.2-0.2-1.7-0.2c-1.3,0-2.8,0.3-4.3,0.8
		c-1.5,0.6-2.8,1.2-3.9,1.9l-0.6-5.7c1.6-0.7,3.2-1.2,4.8-1.6c1.5-0.4,3.1-0.6,4.7-0.6c1.4,0,2.9,0.2,4.2,0.6
		c1.3,0.4,2.4,1.1,3.5,1.8c1,0.8,1.7,1.8,2.3,3c0.6,1.2,0.9,2.6,0.9,4.2c0,1.9-0.5,3.7-1.3,5.6c-1,1.8-2.1,3.6-3.5,5.2
		c-1.3,1.6-2.8,3.2-4.3,4.6c-1.5,1.4-2.9,2.6-4.1,3.6c2.2,0,4.4,0,6.8,0c2.3,0.1,4.6,0.1,6.8,0.1v5.2H55.1V38.8z"/>
</g>
</svg>
