<?xml version="1.0" encoding="utf-8"?>
<!-- Generator: Adobe Illustrator 25.3.1, SVG Export Plug-In . SVG Version: 6.00 Build 0)  -->
<svg version="1.1" id="레이어_1" xmlns="http://www.w3.org/2000/svg" xmlns:xlink="http://www.w3.org/1999/xlink" x="0px"
	 y="0px" viewBox="0 0 149 42" style="enable-background:new 0 0 149 42;" xml:space="preserve">
<style type="text/css">
	.st0{fill:#FF849B;}
	.st1{fill:#6AD874;}
	.st2{enable-background:new    ;}
	.st3{fill:#FFFFFF;}
</style>
<g>
	<path class="st0" d="M8,0h133c4.4,0,8,3.6,8,8v34H0V8C0,3.6,3.6,0,8,0z"/>
	<path class="st1" d="M12,0h23v23H12V0z"/>
	<g class="st2">
		<path class="st3" d="M18.7,16c0.6-0.6,1.2-1.2,2-1.7c0.7-0.6,1.4-1.2,2.1-1.8c0.6-0.6,1.2-1.3,1.6-2.1C24.8,9.6,25,8.7,25,7.8
			C25,7.5,25,7.3,24.8,7c-0.1-0.2-0.3-0.4-0.5-0.6c-0.2-0.1-0.4-0.3-0.7-0.4C23.4,6,23.2,6,22.9,6c-0.6,0-1.2,0.1-1.9,0.4
			c-0.7,0.3-1.2,0.5-1.7,0.8l-0.3-2.5c0.7-0.3,1.4-0.5,2.1-0.7c0.7-0.2,1.4-0.3,2-0.3c0.6,0,1.3,0.1,1.8,0.3
			c0.6,0.2,1.1,0.5,1.5,0.8c0.4,0.4,0.8,0.8,1,1.3C27.8,6.6,28,7.2,28,7.9c0,0.8-0.2,1.6-0.6,2.4c-0.4,0.8-0.9,1.6-1.5,2.3
			c-0.6,0.7-1.2,1.4-1.9,2c-0.7,0.6-1.3,1.2-1.8,1.6c0.9,0,1.9,0,3,0c1,0,2,0,3,0v2.3h-9.5V16z"/>
	</g>
</g>
</svg>
