<?xml version="1.0" encoding="utf-8"?>
<!-- Generator: Adobe Illustrator 25.3.1, SVG Export Plug-In . SVG Version: 6.00 Build 0)  -->
<svg version="1.1" id="레이어_1" xmlns="http://www.w3.org/2000/svg" xmlns:xlink="http://www.w3.org/1999/xlink" x="0px"
	 y="0px" viewBox="0 0 149 42" style="enable-background:new 0 0 149 42;" xml:space="preserve">
<style type="text/css">
	.st0{fill:#FF849B;}
	.st1{fill:#6AD874;}
	.st2{enable-background:new    ;}
	.st3{fill:#FFFFFF;}
</style>
<path class="st0" d="M8,0h133c4.4,0,8,3.6,8,8v34H0V8C0,3.6,3.6,0,8,0z"/>
<path class="st1" d="M12,0h23v23H12V0z"/>
<g class="st2">
	<path class="st3" d="M20.6,9.7h1.5c0.3,0,0.6,0,1-0.1c0.3,0,0.7-0.1,0.9-0.3c0.3-0.1,0.5-0.3,0.8-0.6C24.9,8.5,25,8.2,25,7.8
		c0-0.7-0.2-1.1-0.6-1.4c-0.2-0.1-0.4-0.2-0.7-0.3C23.5,6.1,23.3,6,23,6c-0.3,0-0.6,0-1,0.1c-0.4,0-0.7,0.1-1,0.3
		c-0.3,0.1-0.6,0.2-0.9,0.3c-0.3,0.1-0.5,0.2-0.7,0.3l-0.2-2.5C19.8,4.2,20.4,4,21,3.9c0.7-0.1,1.3-0.2,2-0.2c0.6,0,1.2,0.1,1.8,0.2
		c0.6,0.2,1.2,0.4,1.6,0.7c0.4,0.3,0.8,0.8,1.1,1.3C27.8,6.4,28,7,28,7.8c0,0.7-0.2,1.3-0.6,1.8c-0.4,0.5-0.9,1-1.4,1.3
		c0.7,0.4,1.2,0.8,1.6,1.3c0.4,0.6,0.6,1.3,0.6,2.1c0,0.8-0.2,1.5-0.5,2c-0.3,0.5-0.7,1-1.2,1.3c-0.5,0.3-1.1,0.5-1.8,0.7
		c-0.7,0.2-1.3,0.3-2,0.3s-1.3-0.1-2-0.2c-0.7-0.1-1.3-0.3-1.9-0.4c0-0.5,0.1-0.9,0.1-1.4c0-0.4,0-0.9,0.1-1.3
		c0.2,0.1,0.4,0.3,0.7,0.4c0.3,0.1,0.5,0.3,0.8,0.3c0.3,0.1,0.6,0.2,1,0.2c0.3,0.1,0.7,0.1,1,0.1c0.3,0,0.7,0,1-0.1
		c0.3-0.1,0.6-0.2,0.9-0.3c0.3-0.2,0.5-0.4,0.7-0.7c0.2-0.3,0.3-0.5,0.3-0.9c0-0.5-0.1-0.8-0.3-1.1c-0.2-0.3-0.4-0.5-0.7-0.7
		c-0.3-0.1-0.6-0.3-0.9-0.3c-0.4,0-0.8-0.1-1.1-0.1h-1.6V9.7z"/>
</g>
</svg>
