<?xml version="1.0" encoding="utf-8"?>
<!-- Generator: Adobe Illustrator 25.3.1, SVG Export Plug-In . SVG Version: 6.00 Build 0)  -->
<svg version="1.1" id="레이어_1" xmlns="http://www.w3.org/2000/svg" xmlns:xlink="http://www.w3.org/1999/xlink" x="0px"
	 y="0px" viewBox="0 0 389 110" style="enable-background:new 0 0 389 110;" xml:space="preserve">
<style type="text/css">
	.st0{fill:#69D773;}
	.st1{fill:#F98C56;}
	.st2{enable-background:new    ;}
	.st3{fill:#FFFFFF;}
</style>
<g id="그룹_524" transform="translate(-52 -3159)">
	<path id="사각형_106" class="st0" d="M76,3159h341c13.3,0,24,10.7,24,24v86l0,0H52l0,0v-86C52,3169.7,62.7,3159,76,3159z"/>
	<rect id="사각형_89" x="90" y="3159" class="st1" width="59" height="60"/>
	<g class="st2">
		<path class="st3" d="M111.5,3183.4h3.4c0.7,0,1.4,0,2.3-0.2c0.8-0.1,1.5-0.3,2.2-0.6c0.7-0.3,1.2-0.8,1.7-1.4
			c0.4-0.6,0.7-1.3,0.7-2.1c0-1.5-0.4-2.5-1.3-3.2c-0.5-0.3-1-0.5-1.5-0.7c-0.6-0.1-1.2-0.2-1.7-0.2c-0.7,0-1.4,0-2.2,0.1
			c-0.8,0.1-1.6,0.3-2.4,0.6c-0.7,0.3-1.4,0.5-2,0.7c-0.7,0.2-1.2,0.5-1.7,0.7l-0.5-5.7c1.2-0.5,2.6-0.9,4.2-1.2
			c1.5-0.3,3-0.4,4.5-0.4c1.4,0,2.8,0.2,4.2,0.5c1.4,0.4,2.6,0.9,3.7,1.6c1,0.8,1.8,1.7,2.5,2.9c0.6,1.2,1,2.6,1,4.3
			c0,1.5-0.5,2.9-1.4,4c-1,1.2-2.1,2.3-3.3,3.1c1.5,0.8,2.7,1.8,3.6,3.1c0.9,1.3,1.3,2.9,1.3,4.8c0,1.8-0.4,3.4-1.1,4.6
			c-0.8,1.2-1.7,2.3-2.7,3c-1.2,0.7-2.5,1.2-4,1.5c-1.5,0.4-3.1,0.6-4.6,0.6s-3.1-0.1-4.6-0.4c-1.6-0.3-3-0.6-4.3-1
			c0.1-1.1,0.2-2.1,0.3-3.1c0-1,0.1-2,0.2-3.1c0.4,0.3,0.9,0.6,1.5,0.9c0.6,0.3,1.2,0.6,1.9,0.8c0.7,0.2,1.4,0.4,2.2,0.5
			c0.7,0.1,1.5,0.2,2.3,0.2c0.8,0,1.6,0,2.4-0.2c0.8-0.1,1.4-0.4,2-0.7c0.6-0.4,1.1-0.9,1.5-1.5c0.4-0.6,0.6-1.2,0.6-2.1
			c0-1.1-0.2-1.9-0.6-2.6c-0.4-0.7-1-1.2-1.7-1.6c-0.6-0.3-1.3-0.6-2.1-0.8c-0.9-0.1-1.7-0.2-2.5-0.2h-3.6V3183.4z"/>
	</g>
</g>
</svg>
