<?xml version="1.0" encoding="utf-8"?>
<!-- Generator: Adobe Illustrator 25.3.1, SVG Export Plug-In . SVG Version: 6.00 Build 0)  -->
<svg version="1.1" id="레이어_1" xmlns="http://www.w3.org/2000/svg" xmlns:xlink="http://www.w3.org/1999/xlink" x="0px"
	 y="0px" viewBox="0 0 508.7 386.8" style="enable-background:new 0 0 508.7 386.8;" xml:space="preserve">
<style type="text/css">
	.st0{fill:#FF849B;}
	.st1{enable-background:new    ;}
	.st2{fill:#FFFFFF;}
</style>
<g>
	<path class="st0" d="M0,386.8V244c0-16.6,13.4-30,30-30h45.1c-1.4-9.3-2.1-18.7-2.1-28.1C73,83.4,154.6,0.4,255.2,0.4
		s182.2,83,182.2,185.5c0,9.4-0.7,18.8-2.1,28.1h43.4c16.6,0,30,13.4,30,30v142.8H0z"/>
	<g class="st1">
		<path class="st2" d="M155.2,163.2c0-18.1,9.9-31.4,24.2-39.1c-10.6-7.7-17.2-18.1-17.2-32.3c0-26.4,21.9-43.4,48.8-43.4
			c26.2,0,49,16.7,49,43.4c0,12.7-6.3,25.3-17.4,32.3c15.4,7.7,24.2,21.7,24.2,39.1c0,31.4-25.5,51.5-55.8,51.5
			C179.9,214.7,155.2,193.5,155.2,163.2z M190.5,160.9c0,11.5,6.8,22.6,20.6,22.6c12.9,0,20.6-11.1,20.6-22.6
			c0-14.2-8.1-22.6-20.6-22.6C198,138.3,190.5,148.3,190.5,160.9z M194.8,95.4c0,10.2,5.9,17.2,16.3,17.2s16.5-7,16.5-17.2
			c0-9.7-5.9-17.2-16.5-17.2S194.8,85.7,194.8,95.4z"/>
	</g>
	<g class="st1">
		<path class="st2" d="M326.7,189.3c0,1.9-0.7,2.5-2.7,2.6l-39.4,1c-2,0.1-2.7-0.7-2.7-2.6l-0.7-44.2c0-1.9,0.7-2.6,2.7-2.6l41.4-1
			c2,0,2.7,0.7,2.7,2.6v5.9c0,1.9-0.7,2.6-2.7,2.6l-32,0.8l0.4,27.3l30.3-0.8c2-0.1,2.7,0.7,2.7,2.6V189.3z M297.1,230
			c-2,0-2.7-0.7-2.7-2.6v-26.2c0-1.9,0.7-2.6,2.7-2.6h6.7c2,0,2.7,0.7,2.7,2.6v17.6l41.3-0.8c1.8,0,2.4,0.5,2.4,2.5v6.1
			c0,2-0.5,2.5-2.3,2.5L297.1,230z M350.2,176.8v18.9c0,1.9-0.7,2.6-2.7,2.6h-6.7c-2,0-2.7-0.7-2.7-2.6v-49.6c0-1.9,0.7-2.6,2.7-2.6
			h6.7c2,0,2.7,0.7,2.7,2.6v19.7l7.1-0.3c1.8-0.1,2.4,0.5,2.4,2.5v6.1c0,2-0.6,2.4-2.4,2.5L350.2,176.8z"/>
	</g>
	<g class="st1">
		<path class="st2" d="M117,307.4l8.1,23.8L104.5,316l-20.3,14.7l7.8-23.7l-18.9-14.2h23.7l7.8-22.2l7.9,22.2h23.8L117,307.4z"/>
		<path class="st2" d="M183.6,285.4c1.6-0.4,1.6-1,1.6-2.7v-2.5l-18,0.3c-1.3,0-1.8-0.4-1.8-2.1v-4.6c0-1.6,0.4-1.9,1.9-1.9l45-0.7
			c1.4,0,1.9,0.4,1.9,1.9v4.6c0,1.7-0.5,2.1-1.8,2.1l-17.8,0.3v2.4c0,1.7,0,2.4,1.6,2.7l17.6,3.8c1.6,0.3,1.9,0.8,1.3,2.4l-1.6,4.4
			c-0.5,1.4-1.1,1.5-2.5,1.2l-21.3-4.6l-21.1,5.4c-1.4,0.4-1.9,0.1-2.4-1.1l-1.6-4.4c-0.5-1.4-0.3-1.9,1.2-2.3L183.6,285.4z
			 M185.1,301.5v-3.6c0-1.5,0.5-2,2.1-2h5.2c1.6,0,2.1,0.5,2.1,2v3.5l18.2-0.3c1.4,0,1.9,0.4,1.9,1.9v4.6c0,1.7-0.5,2.1-1.8,2.1
			l-45.9,0.7c-1.3,0-1.8-0.4-1.8-2.1v-4.6c0-1.6,0.4-1.9,1.9-1.9L185.1,301.5z M171.1,327.7c0-7.7,5.8-13.8,18.7-13.8
			s18.7,6.1,18.7,13.8s-5.8,13.8-18.7,13.8C176.9,341.5,171.1,335.4,171.1,327.7z M198.8,327.7c0-3.6-2.8-6-9-6s-9,2.4-9,6
			c0,3.6,2.8,6,9,6S198.8,331.3,198.8,327.7z"/>
		<path class="st2" d="M237.6,274.3v-4.4c0-1.5,0.5-2,2.1-2h5.2c1.6,0,2.1,0.5,2.1,2v4.1l13.1-0.3c1.4,0,1.9,0.4,1.9,1.9v4.6
			c0,1.7-0.5,2.1-1.8,2.1l-35.8,0.7c-1.3,0-1.8-0.4-1.8-2.1v-4.6c0-1.6,0.4-1.9,1.9-1.9L237.6,274.3z M224.7,298.6
			c0-8.2,6.7-12.6,18.4-12.6c11.6,0,18.4,4.4,18.4,12.6s-6.7,12.5-18.4,12.5C231.4,311.1,224.7,306.8,224.7,298.6z M251.9,298.6
			c0-3.5-3.6-5.1-8.9-5.1c-5.3,0-8.9,1.6-8.9,5.1s3.6,5,8.9,5C248.3,303.6,251.9,302.1,251.9,298.6z M238.1,340c-1.6,0-2-0.5-2.1-2
			l-0.7-20.9c-0.1-1.5,0.5-2,2.1-2h5.2c1.6,0,2,0.5,2.1,2l0.1,3l21.5-0.4l0.1-3.3c0.1-1.5,0.5-2,2.1-2h5.2c1.6,0,2.1,0.5,2.1,2
			l-0.7,20.9c-0.1,1.5-0.5,2-2.1,2L238.1,340z M245.2,332l20.7-0.4l0.1-4.1l-20.9,0.4L245.2,332z M277.6,295.6v12.5
			c0,1.5-0.5,2-2.1,2h-5.2c-1.6,0-2.1-0.5-2.1-2v-33.5c0-1.5,0.5-2,2.1-2h5.2c1.6,0,2.1,0.5,2.1,2V287l5.6-0.2
			c1.4-0.1,1.8,0.4,1.8,1.9v4.7c0,1.6-0.4,1.9-1.8,1.9L277.6,295.6z"/>
		<path class="st2" d="M311.6,280.9c1.4-0.8,1.6-1,1.6-2.7v-5c0-1.5,0.5-2,2.1-2h5.2c1.6,0,2.1,0.5,2.1,2v5c0,1.7,0.1,2,1.6,2.7
			l17.6,8.6c1.6,0.8,2.1,1.1,1.2,2.8l-2.2,4.1c-0.8,1.4-1.3,1.5-2.7,0.8l-20.3-9.8L297.5,298c-1.4,0.8-1.9,0.4-2.6-0.9l-2.3-4.1
			c-0.8-1.4-0.4-1.9,1-2.7L311.6,280.9z M313.2,301.5v-6.6c0-1.5,0.5-2,2.1-2h5.2c1.6,0,2.1,0.5,2.1,2v6.4l18.2-0.3
			c1.4,0,1.8,0.4,1.8,1.9v4.6c0,1.7-0.5,2.1-1.8,2.1l-45.9,0.7c-1.3,0-1.8-0.4-1.8-2.1v-4.6c0-1.6,0.4-1.9,1.9-1.9L313.2,301.5z
			 M299.1,327.7c0-7.7,5.8-13.8,18.7-13.8c13,0,18.7,6.1,18.7,13.8s-5.8,13.8-18.7,13.8C304.9,341.5,299.1,335.4,299.1,327.7z
			 M326.9,327.7c0-3.6-2.8-6-9-6c-6.2,0-9,2.4-9,6c0,3.6,2.8,6,9,6C324,333.7,326.9,331.3,326.9,327.7z"/>
		<path class="st2" d="M415.6,307.4l8.1,23.8L403.1,316l-20.3,14.7l7.8-23.7l-18.9-14.2h23.7l7.8-22.2l7.9,22.2h23.8L415.6,307.4z"
			/>
	</g>
</g>
</svg>
