<svg data-name="그룹 468" xmlns="http://www.w3.org/2000/svg" width="476.211" height="104.946" viewBox="0 0 476.211 104.946">
    <defs>
        <clipPath id="c3ua1wq23a">
            <path data-name="패스 489" d="M0 43.981h191.975v-78.344H0z" transform="translate(0 34.363)" style="fill:none"/>
        </clipPath>
    </defs>
    <g data-name="그룹 453">
        <g data-name="그룹 163">
            <path data-name="패스 170" d="m21.1 0-36.27.1a1.274 1.274 0 0 0-1.265 1.391l.619 6.655A1.277 1.277 0 0 0-14.534 9.3l35.215-.322A1.269 1.269 0 0 0 21.939 7.8l.436-6.438A1.271 1.271 0 0 0 21.1 0" transform="translate(350.068 95.642)" style="fill:#2b2e34"/>
        </g>
        <g data-name="그룹 452">
            <g data-name="그룹 152">
                <path data-name="패스 159" d="M3.106 19.308c2.962-1.1 11.333-4.673 14.959-11.079 4.634 2.03 10.051 7.429 12.26 9.764a1.226 1.226 0 0 0 1.891-.135l5.157-7.267a1.225 1.225 0 0 0-.206-1.647c-2.14-1.8-7.98-6.388-13.744-7.911a54.421 54.421 0 0 0 2.314-14.823 1.225 1.225 0 0 0-1.325-1.245c-2.583.206-8.265.66-10.844.888a1.224 1.224 0 0 0-1.105 1.4c.359 2.487.914 8.153-.61 12.616C10.07 5.1 1.823 7.9-1.523 8.834a1.227 1.227 0 0 0-.777 1.708l3.869 8.14a1.228 1.228 0 0 0 1.537.626" transform="translate(314.228 15.039)" style="fill:#2b2e34"/>
            </g>
            <g data-name="그룹 153">
                <path data-name="패스 160" d="m12.468 5.321.091 12.9a1.225 1.225 0 0 0 1.165 1.215l6.036.32a1.228 1.228 0 0 0 1.293-1.256c-.1-3.588-.384-13.2-.384-13.2s7-.148 7-.254l.336-7.907a1.226 1.226 0 0 0-1.261-1.279l-35.27 1A1.225 1.225 0 0 0-9.71-1.871l.335 8.171c0 .05 9.1-.783 9.1-.783l-.382 12.397a1.227 1.227 0 0 0 1.13 1.263l6.29.491a1.227 1.227 0 0 0 1.322-1.21l.14-12.683z" transform="translate(322.097 39.81)" style="fill:#2b2e34"/>
            </g>
            <g data-name="그룹 154">
                <path data-name="패스 161" d="M2.487 5.27c.2 4.406.562 11.639.806 20.162-1.151.043-2.1.08-2.786.107a1.226 1.226 0 0 0-1.179 1.282c.08 1.775.254 5.022.347 6.758a1.225 1.225 0 0 0 1.248 1.163c4.116-.085 17.75-.544 21.717-.729a1.23 1.23 0 0 0 1.167-1.144c.116-1.727.345-5.116.459-7.014a1.231 1.231 0 0 0-1.29-1.3c-1.247.066-2.585.132-4.052.2.267-4.712.788-12.244 1.357-19.555 1.1 0 2.024-.034 2.686-.075A1.227 1.227 0 0 0 24.118 3.9l.03-6.3a1.229 1.229 0 0 0-1.2-1.233L-.683-4.1a1.228 1.228 0 0 0-1.254 1.247l.137 6.847A1.229 1.229 0 0 0-.619 5.2c.968.039 2.32.085 3.106.075m7.722-.062c1.231 0 2.4-.007 3.508-.009-.231 4-.7 10.659-1.334 19.856-.733.032-1.455.066-2.163.094-.037-4.563-.087-11.961-.011-19.941" transform="translate(353.674 15.662)" style="fill:#2b2e34"/>
            </g>
            <g data-name="그룹 155">
                <path data-name="패스 162" d="M0 12.65v4.75a1.227 1.227 0 0 0 1.37 1.217l3.7-.429c.08 3.622-.123 13.792-.2 17.451a1.231 1.231 0 0 0 1.306 1.252l5.97-.375a1.233 1.233 0 0 0 1.151-1.188l1.354-43.521A1.23 1.23 0 0 0 13.5-9.458L7-9.851a1.227 1.227 0 0 0-1.3 1.186c-.142 4.531-.507 19.714-.507 19.714l-4.077.379A1.226 1.226 0 0 0 0 12.65" transform="translate(376.309 15.766)" style="fill:#2b2e34"/>
            </g>
            <g data-name="그룹 156">
                <path data-name="패스 163" d="m1.021 16.9 4.993-.381a1.225 1.225 0 0 0 1.135-1.208c.021-1.788.043-5.516 0-9.761l2.476-.066c.034 2.974.059 7.783.069 9.969a1.222 1.222 0 0 0 1.149 1.217l4.769.308a1.227 1.227 0 0 0 1.306-1.21l.324-27.694a1.232 1.232 0 0 0-1.375-1.233l-5.3.633a1.224 1.224 0 0 0-1.083 1.21c-.011 1.777-.021 5.584.053 10.239l-2.443-.09c-.014-3.426.03-8.053.057-10.314a1.229 1.229 0 0 0-1.336-1.236l-5.49.489a1.225 1.225 0 0 0-1.12 1.245L-.3 15.7a1.226 1.226 0 0 0 1.32 1.2" transform="translate(416.638 21.343)" style="fill:#2b2e34"/>
            </g>
            <g data-name="그룹 157">
                <path data-name="패스 164" d="M5.738 14.622c.146.009.3.014.448.018 3.666.082 6.514-1.126 8.462-3.593 1.736-2.193 2.7-5.4 2.791-9.277.19-8.261-3.2-12.8-9.786-13.137a9.723 9.723 0 0 0-.45-.018C3.335-11.473.366-10.3-1.623-7.913c-1.8 2.158-2.75 5.246-2.839 9.186-.192 8.261 3.43 13 10.2 13.349M3.374 1.261C3.566-2.267 4.9-4.864 6.656-4.775a.6.6 0 0 1 .126.011c1.829.264 2.628 2.68 2.382 7.186C8.9 7.339 7.094 8.1 6.046 8.109a1.678 1.678 0 0 1-1.336-.576C3.924 6.672 3.228 3.9 3.374 1.261" transform="translate(397.153 24.174)" style="fill:#2b2e34"/>
            </g>
            <g data-name="그룹 158">
                <path data-name="패스 165" d="m15.311 9.073.242-14.9a1.224 1.224 0 0 0-1.261-1.245l-25.024.672a1.227 1.227 0 0 0-1.178 1.416l.783 5.068a1.226 1.226 0 0 0 1.281 1.035L7.788.125l-.774 8.494a1.232 1.232 0 0 0 1.155 1.338l5.847.322a1.228 1.228 0 0 0 1.295-1.206" transform="translate(414.259 48.182)" style="fill:#2b2e34"/>
            </g>
            <g data-name="그룹 159">
                <path data-name="패스 166" d="M7.431 14.039c5.276 2.416 8.731 10.9 8.763 10.883L23 20.557a1.225 1.225 0 0 0 .381-1.679C21.81 16.341 17.357 9.957 11.645 8.66c3.332-6.431 3.885-15.048 3.969-18.337a1.226 1.226 0 0 0-1.314-1.254c-2.3.171-6.977.523-9.273.713a1.225 1.225 0 0 0-1.112 1.4c.432 2.9 1.172 10.168-1.137 15.722C1.223 10.64-3.137 13.326-5.14 14.4a1.229 1.229 0 0 0-.537 1.594l2.88 6.294a1.227 1.227 0 0 0 1.777.525c2.042-1.306 6.18-4.349 8.45-8.772" transform="translate(441.521 15.797)" style="fill:#2b2e34"/>
            </g>
            <g data-name="그룹 160">
                <path data-name="패스 167" d="M7.671.222 1.527-.171A1.225 1.225 0 0 0 .221 1.067c.011 1.19.032 3.117.053 5.518a314.41 314.41 0 0 0-4.872-.63 1.227 1.227 0 0 0-1.375 1.279c.069 1.345.18 3.323.254 4.579a1.226 1.226 0 0 0 1.263 1.153c1.434-.043 3.771-.112 4.771-.116 0 .834.009 1.692.011 2.572-1.763.007-3.4-.009-4.518-.025a1.227 1.227 0 0 0-1.228 1.422l.658 4.074a1.225 1.225 0 0 0 1.352 1.023 200.15 200.15 0 0 1 3.746-.4c0 3.915-.046 9.8-.071 12.5a1.227 1.227 0 0 0 1.411 1.224l5.068-.77a1.226 1.226 0 0 0 1.041-1.17L8.82 1.488A1.228 1.228 0 0 0 7.671.222" transform="translate(467.392 7.196)" style="fill:#2b2e34"/>
            </g>
            <g data-name="그룹 161">
                <path data-name="패스 168" d="M15.275 4.963c-4.1.174-17.853.763-19.082.824.2-3.4.359-6.315.443-7.863a1.229 1.229 0 0 0-1.126-1.29l-6.082-.5a1.226 1.226 0 0 0-1.322 1.322l1.1 13.626a1.225 1.225 0 0 0 1.2 1.128l25.461.418a1.226 1.226 0 0 0 1.24-1.359l-.566-5.216a1.225 1.225 0 0 0-1.27-1.094" transform="translate(456.356 43.768)" style="fill:#2b2e34"/>
            </g>
            <g data-name="그룹 162">
                <path data-name="패스 169" d="M14.038 9.314c2.4-5.682 2.672-12.438 2.665-15.3a1.272 1.272 0 0 0-1.389-1.265l-9.35.856a1.275 1.275 0 0 0-1.149 1.4C5.147-1.937 5.631 5.824 2.7 10.17c-3.325 4.938-9.6 6.957-12.655 7.676a1.269 1.269 0 0 0-.788 1.9l4.8 7.786a1.268 1.268 0 0 0 1.606.493c2.738-1.245 10.218-5.164 13.623-12.2 6.073 2.435 10.2 7.63 11.974 10.232a1.272 1.272 0 0 0 2.083.032l4.631-6.389a1.271 1.271 0 0 0-.011-1.51c-1.6-2.117-6.614-7.946-13.925-8.875" transform="translate(344.117 64.828)" style="fill:#2b2e34"/>
            </g>
            <g data-name="그룹 164">
                <path data-name="패스 171" d="M4.975 18.385 4.249 7.829h5.3a1.273 1.273 0 0 0 1.272-1.347L10.529 1.6A1.274 1.274 0 0 0 9.141.409L3.911.9l-.1-7.13 10.841.53a1.269 1.269 0 0 0 1.318-1.06l.991-5.913a1.271 1.271 0 0 0-1.242-1.482L-2.29-14.32a1.273 1.273 0 0 0-1.284 1.263l-.3 37.513a1.274 1.274 0 0 0 1.263 1.281l17.606.142a1.273 1.273 0 0 0 1.278-1.179l.454-5.908a1.271 1.271 0 0 0-1.384-1.366z" transform="translate(380.889 77.676)" style="fill:#2b2e34"/>
            </g>
            <g data-name="그룹 165">
                <path data-name="패스 172" d="M7.9.13 1.321-.1A1.279 1.279 0 0 0 0 1.231l.878 19.383-5.561-.368a1.273 1.273 0 0 0-1.357 1.24l-.114 5.107a1.269 1.269 0 0 0 1.338 1.3l5.21-.274-.016 15.745a1.272 1.272 0 0 0 1.427 1.265l6.146-.756a1.271 1.271 0 0 0 1.117-1.261L9.13 1.4A1.273 1.273 0 0 0 7.9.13" transform="translate(401.286 59.925)" style="fill:#2b2e34"/>
            </g>
            <g data-name="그룹 166">
                <path data-name="패스 173" d="m12.441 4 .356-5.34a1.274 1.274 0 0 0-1.242-1.359l-19.945-.42a1.271 1.271 0 0 0-1.3 1.272v35.631a1.273 1.273 0 0 0 1.322 1.272l18.337-.7a1.274 1.274 0 0 0 1.222-1.194l.343-5.568a1.277 1.277 0 0 0-1.354-1.35c-2.951.2-9.474.623-10.312.662-.42-7.862-1.032-20.814-1.115-22.554l12.331.838A1.272 1.272 0 0 0 12.441 4" transform="translate(425.201 68.753)" style="fill:#2b2e34"/>
            </g>
            <g data-name="그룹 167">
                <path data-name="패스 174" d="m3.758 23.837-4.721.283a1.273 1.273 0 0 1-1.35-1.249c-.1-6.354-.516-33.6-.614-40.148a1.272 1.272 0 0 1 1.4-1.284l6 .576a1.273 1.273 0 0 1 1.151 1.29l-.669 39.283a1.272 1.272 0 0 1-1.2 1.249" transform="translate(443.677 80.006)" style="fill:#2b2e34"/>
            </g>
        </g>
    </g>
    <g data-name="그룹 467">
        <g data-name="그룹 455" transform="translate(0 13.441)" style="clip-path:url(#c3ua1wq23a)">
            <g data-name="그룹 454">
                <path data-name="패스 488" d="M17.31 0h-30.835v10.061H2.731c-1.377 7.476-6.443 11.924-14.676 12.863l-1.352.155-.011 11.31q1.046.038 2.088-.021a26.666 26.666 0 0 0 13.451-4.72c8.714-5.985 15.485-16.262 15.111-27.117L17.31 0" transform="translate(13.526 20.825)" style="fill:#2b2e34"/>
            </g>
        </g>
        <path data-name="패스 490" d="M15.053 11.671h10.061v-38.81H15.053z" transform="translate(19.266 57.05)" style="fill:#2b2e34"/>
        <g data-name="그룹 456">
            <path data-name="패스 491" d="M11.017 0H-8.608v10.061h19.625v9.694h10.061V0H11.017z" transform="translate(114.566 69.416)" style="fill:#2b2e34"/>
        </g>
        <path data-name="패스 492" d="M44.59-6.2h33.984v-10.062H44.59z" transform="translate(57.07 70.971)" style="fill:#2b2e34"/>
        <g data-name="그룹 457">
            <path data-name="패스 493" d="M0 0v37.488h29.686V27.427H10.061V24.4h19.625V14.336H10.061v-4.273h19.625V0z" style="fill:#2b2e34" transform="translate(105.958 13.439)"/>
        </g>
        <g data-name="그룹 459" transform="translate(0 13.441)" style="clip-path:url(#c3ua1wq23a)">
            <g data-name="그룹 458">
                <path data-name="패스 494" d="m.887 12.869-1.352.155-.011 11.31c.7.025 1.4.018 2.088-.021a26.658 26.658 0 0 0 13.451-4.722 36.888 36.888 0 0 0 2.193-1.635 7.156 7.156 0 1 0 7.154-7.214c-.1 0-.189.011-.283.014a29.658 29.658 0 0 0 6.047-18.28l-.032-2.531H-.693V.006h16.256C14.186 7.482 9.12 11.93.887 12.869" transform="translate(50.378 26.774)" style="fill:#2b2e34"/>
            </g>
        </g>
        <g data-name="그룹 460">
            <path data-name="패스 496" d="M4.249 0v11.568H-3.32v10.061h7.569v12.934H14.31V0z" transform="translate(84.073 30.051)" style="fill:#2b2e34"/>
        </g>
        <g data-name="그룹 461">
            <path data-name="패스 497" d="M21.346 0h-38.024v10.061h38.024v9.694h10.061V0H21.346z" transform="translate(66.976 69.417)" style="fill:#2b2e34"/>
        </g>
        <g data-name="그룹 463" transform="translate(0 13.441)" style="clip-path:url(#c3ua1wq23a)">
            <g data-name="그룹 462">
                <path data-name="패스 498" d="M17.328 1.421 17.3-1.11h-30.839V8.951H2.719C1.34 16.427-3.724 20.875-11.959 21.814l-1.352.155-.011 11.31c.7.025 1.4.018 2.088-.021a26.658 26.658 0 0 0 13.451-4.72C10.931 22.553 17.7 12.275 17.328 1.421" transform="translate(154.148 15.028)" style="fill:#2b2e34"/>
            </g>
        </g>
        <g data-name="그룹 464">
            <path data-name="패스 500" d="M0 0v34.563h10.061V21.629h7.571V11.566h-7.571V0z" style="fill:#2b2e34" transform="translate(174.343 27.027)"/>
        </g>
        <g data-name="그룹 466" transform="translate(0 13.441)" style="clip-path:url(#c3ua1wq23a)">
            <g data-name="그룹 465">
                <path data-name="패스 501" d="M8.607 0a15.331 15.331 0 1 0 15.332 15.332A15.333 15.333 0 0 0 8.607 0m0 18.909a3.578 3.578 0 1 1 3.579-3.577 3.578 3.578 0 0 1-3.579 3.577" transform="translate(157.459 47.681)" style="fill:#2b2e34"/>
            </g>
        </g>
    </g>
    <text transform="translate(251.888 65.847)" style="font-size:41px;font-family:CookieRunOTF-Regular,CookieRunOTF;fill:#2b2e34"><tspan x="-14.678" y="0">X</tspan></text>
</svg>
