<svg data-name="그룹 474" xmlns="http://www.w3.org/2000/svg" width="879" height="125" viewBox="0 0 879 125">
    <g data-name="그룹 420">
        <g data-name="그룹 419">
            <g data-name="그룹 393">
                <path data-name="패스 419" d="M-3.768-13.829c36.256 0 65.647-27.982 65.647-62.5s-29.391-62.5-65.647-62.5-65.647 27.982-65.647 62.5 29.391 62.5 65.647 62.5" transform="translate(69.415 138.829)" style="fill:#2b2e34"/>
            </g>
            <g data-name="그룹 394">
                <path data-name="패스 420" d="M-4.158-12.238c6.578 0 11.911-5.009 11.911-11.188S2.421-34.612-4.158-34.612-16.069-29.6-16.069-23.426s5.333 11.188 11.911 11.188m0-8.576a2.7 2.7 0 0 1-2.78-2.611 2.7 2.7 0 0 1 2.78-2.611 2.7 2.7 0 0 1 2.78 2.611 2.7 2.7 0 0 1-2.78 2.611m6.43-38.678v25.221h7.816v-9.438h5.882v-7.341h-5.881v-8.442zM2.85-69.88v7.072h7.816v-14.415h-37.357v7.342zm18.684 6.99a1.369 1.369 0 0 0 1.733-.728 1.241 1.241 0 0 0-.773-1.627l-4.7-1.684a1.368 1.368 0 0 0-1.732.728 1.181 1.181 0 0 0-.09.45 1.267 1.267 0 0 0 .862 1.178zm-2.088-13.83h7.379a1.3 1.3 0 0 0 1.342-1.26 1.3 1.3 0 0 0-1.342-1.26h-7.379a1.3 1.3 0 0 0-1.346 1.26 1.3 1.3 0 0 0 1.342 1.26m-27.11-3.525A5.4 5.4 0 0 0-2.1-85.467a5.4 5.4 0 0 0-5.564-5.223c-.075 0-.147.008-.22.011a20.787 20.787 0 0 0 4.7-13.342l-.024-1.847h-23.96v7.342h12.63c-1.071 5.454-5.006 8.7-11.4 9.386l-1.05.112-.012 8.253c.542.02 1.084.014 1.623-.013a21.593 21.593 0 0 0 10.45-3.446c.58-.374 1.148-.773 1.7-1.191a5.4 5.4 0 0 0 5.559 5.181M2.85-90.165v9.439h7.816v-25.221H2.85v8.441h-5.881v7.341zm14.941 1.135 4.7-1.686a1.238 1.238 0 0 0 .773-1.627 1.369 1.369 0 0 0-1.733-.728l-4.7 1.686a1.265 1.265 0 0 0-.862 1.178 1.184 1.184 0 0 0 .09.449 1.369 1.369 0 0 0 1.732.728m-49.741-20.487h-7.817v28.791h7.817zm0 28.791-10.5-23.3-.025-1.847h-23.954v7.342H-53.8c-1.071 5.454-5 8.7-11.4 9.386l-1.051.112-.008 8.253q.811.029 1.623-.013a21.589 21.589 0 0 0 10.449-3.446c6.77-4.367 12.031-11.866 11.74-19.787m10.192 36.844v-7.338h-23.066v27.355h23.065v-7.342H-47.5v-2.21h15.248v-7.341H-47.5v-3.119zm-37.71 5.239a1.368 1.368 0 0 0-1.732.728 1.238 1.238 0 0 0 .773 1.627l4.7 1.686a1.369 1.369 0 0 0 1.733-.728 1.179 1.179 0 0 0 .089-.449 1.264 1.264 0 0 0-.862-1.178zm2.089 13.831h-7.379a1.3 1.3 0 0 0-1.342 1.26 1.3 1.3 0 0 0 1.342 1.26h7.379a1.3 1.3 0 0 0 1.342-1.26 1.3 1.3 0 0 0-1.342-1.26m56.571-3.8c-1.071 5.454-5.006 8.7-11.4 9.386l-1.05.112-.009 8.254q.813.028 1.624-.014a21.592 21.592 0 0 0 10.449-3.446C-4.925-41.982.336-49.482.045-57.4l-.023-1.849h-23.958v7.342zm-20.951 7.5H-59.2v7.341h26.942zM-66.223-35.8l-4.7 1.685a1.24 1.24 0 0 0-.773 1.626 1.369 1.369 0 0 0 1.732.729l4.7-1.685a1.265 1.265 0 0 0 .864-1.175 1.179 1.179 0 0 0-.089-.449 1.369 1.369 0 0 0-1.733-.728m10.9 9.466h15.248v7.072h7.817v-14.415h-23.064z" transform="translate(90.325 127.284)" style="fill:#0f0"/>
            </g>
        </g>
    </g>
    <g data-name="그룹 112">
        <path data-name="패스 119" d="M-15.467-10.4a62.646 62.646 0 0 0 0-9.072c-2.613-.218-32.442-.073-35.345 0 0-.435-.073-1.089-.073-1.887 10.161.073 31.643.073 34.038-.073a45.857 45.857 0 0 0 0-8.927c-2.4-.218-23.878-.29-34.038-.145 0-.726.073-1.379.073-1.814 1.96.145 31.933.145 34.691 0a38.523 38.523 0 0 0 0-9.145c-4.137-.435-44.126-.435-47.029 0-.581 4.645-.581 26.418 0 31.063 3.992.29 44.271.29 47.682 0m1.96 2.4c-4.5-.218-48.045-.218-51.747 0a47.462 47.462 0 0 0 0 10.161c1.524.073 9.943.073 19.523.073v2.4c-8.854.073-16.475.145-18 .29a42.9 42.9 0 0 0 0 9.653c3.266.145 33.095.145 36.361 0-.073 2.177 0 4.355 0 5.951a86.475 86.475 0 0 0 12.265 0 139.789 139.789 0 0 0 0-15.6c-1.306-.145-9-.218-17.926-.29v-2.4c9.435 0 17.709 0 19.523-.073A52.629 52.629 0 0 0-13.507-8m55.229-15.9a57.441 57.441 0 0 0 0-11.177c-1.379-.218-6.532-.363-12.628-.435a60.063 60.063 0 0 0-.145-8.274 74.227 74.227 0 0 0-12.7 0 60.071 60.071 0 0 0-.149 8.276c-6.024.073-11.177.218-12.7.435a57.511 57.511 0 0 0 0 11.175c1.016.073 4.209.145 8.274.145-3.411 12.628-9.29 36-9.507 38.611 2.177 1.161 9.145 2.758 11.757 2.758.871-2.4 5.734-22.354 8.709-35.49 3.121 12.991 8.129 32.8 9 35.2a39.831 39.831 0 0 0 11.757-2.83c-.218-2.613-6.314-25.765-9.8-38.248 3.919-.073 6.967-.073 8.129-.145M58.415-41.97a56.383 56.383 0 0 0-12.12 0c-.435 3.629-.435 57.916 0 61.472a48.3 48.3 0 0 0 12.12 0c.363-3.629.435-57.844 0-61.472m41.659 22.644a50.3 50.3 0 0 0 0 10.451c1.524.145 5.734.218 9.435.218 0 5.951.073 10.6.145 11.757a82.267 82.267 0 0 0 11.975 0c.508-3.629.508-41.441 0-45.07a55.045 55.045 0 0 0-11.975 0c-.073.726-.073 2.613-.073 5.371-3.774-.073-7.983 0-9.507.145a50.3 50.3 0 0 0 0 10.451c1.524.145 5.734.145 9.435.145v6.387c-3.7 0-7.911 0-9.435.145M96.88-5.319c.508-3.484.508-31.934 0-35.49-3.847-.435-27.942-.435-31.788 0-.508 3.556-.508 32.006 0 35.49 3.484.363 28.3.363 31.788 0M76.994-30.575c2.54-.145 5.371-.073 8.056 0 .218 2.25.218 12.773 0 15.1a74.543 74.543 0 0 1-8.056 0c-.218-2.322-.218-12.846 0-15.1m45.36 38.611c-3.193-.145-39.917-.145-43.255 0 .145-1.96.073-6.822 0-9.217a58.423 58.423 0 0 0-12.338 0c-.363 4.355-.29 15.677 0 20.612 5.225.29 50.658.29 55.593 0a49.855 49.855 0 0 0 0-11.395" transform="translate(213.649 73.308)" style="fill:#2b2e34"/>
    </g>
    <g data-name="그룹 116">
        <path data-name="패스 123" d="M-18.615-7.445c-1.306-.145-3.919-.29-6.6-.29 0-11.612-.145-21.773-.363-23.3a55.716 55.716 0 0 0-12.048 0c-.435 3.629-.435 57.916 0 61.472 2.83.508 9.943.508 12.048 0 .218-1.6.363-13.427.363-26.273 2.685 0 5.3-.073 6.6-.218a59.772 59.772 0 0 0 0-11.395m-36.433-22.204c-.073 2.4-.073 8.274-.073 15.1-3.193 0-7.983 0-11.322.073 0-6.822 0-12.773-.073-15.168a66.767 66.767 0 0 0-12.048 0c-.363 6.6-.435 51.965 0 57.989 4.137.435 32.006.363 35.49 0 .363-4.717.363-51.457 0-57.989a65.978 65.978 0 0 0-11.975 0M-66.515 17.3c0-.943.073-10.378.073-20.612h11.322c0 10.233.073 19.668.073 20.612-1.6.145-9.87.145-11.467 0m91.446 1.669c-1.379-.145-7.4-.218-14.37-.218V11.28c6.169-.073 11.467-.145 13.354-.29A49.616 49.616 0 0 0 23.915.1C20.721-.042.981-.042-2.213.1v-4.279c4.209.073 21.845.073 24.966 0 .363-3.556.363-22.354 0-25.837-3.121-.363-34.764-.363-37.885 0a48.6 48.6 0 0 0 0 11.249c3.411.073 23.079.073 25.765 0v3.992c-2.83-.145-22.063-.145-25.4 0-.363 2.685-.363 22.354 0 25.765 1.814.145 6.822.218 12.7.218v7.548c-7.112 0-13.136.073-14.3.218a42.243 42.243 0 0 0 0 11.322c2.976.29 37.667.29 41.3 0a39.44 39.44 0 0 0 0-11.322M91.99-7.445a62.28 62.28 0 0 0-6.314-.29c0-11.612-.145-21.773-.29-23.3a57.061 57.061 0 0 0-12.193 0c-.435 3.629-.435 57.916 0 61.472a48.884 48.884 0 0 0 12.193 0c.218-1.6.29-13.427.29-26.273 2.613 0 5.08-.073 6.314-.218a59.772 59.772 0 0 0 0-11.395M55.485 16c.073-4.79.073-40.5 0-45.288a120.742 120.742 0 0 0-12.556 0c-.435 2.976-.435 54.069 0 57.118 3.629.29 22.571.29 26.273 0A80.452 80.452 0 0 0 69.2 16c-3.266-.073-10.378-.073-13.717 0m60.891-7.621c13.427 0 21.918-8.491 21.918-19.959s-8.492-19.96-21.916-19.96-21.918 8.491-21.918 19.959 8.491 19.959 21.918 19.959m0-28.74c5.661 0 9.507 3.266 9.507 8.782s-3.846 8.78-9.507 8.78-9.507-3.266-9.507-8.782 3.847-8.782 9.507-8.782m22.063 39.554c-1.452-.145-8.056-.218-15.749-.218.073-2.758 0-5.734-.073-7.911a70.874 70.874 0 0 0-12.41 0c-.073 2.177-.145 5.153-.073 7.911-7.911 0-14.733.073-15.894.218a40.642 40.642 0 0 0 0 11.1c2.976.29 40.57.29 44.2 0a37.944 37.944 0 0 0 0-11.1m6.022-25.765c3.629.29 26.49.29 30.192 0a53.845 53.845 0 0 0 0-10.814c-3.266-.145-14.515-.145-17.854 0 .145-2.4.145-10.524 0-12.919a70.045 70.045 0 0 0-12.338 0c-.581 3.048-.581 20.684 0 23.733m-2.25 15.1c3.484.218 29.974.218 34.256 0a55.67 55.67 0 0 0 0-11.54c-4.282-.218-30.772-.218-34.256 0a51.1 51.1 0 0 0 0 11.54m1.524 22.5c3.629.29 28.3.29 31.933 0a72.75 72.75 0 0 0 0-11.249c-3.266-.145-16.257-.145-19.6 0a68.008 68.008 0 0 0 0-7.693 87.5 87.5 0 0 0-12.338 0 117.91 117.91 0 0 0 0 18.942" transform="translate(439.963 63.139)" style="fill:#fff"/>
    </g>
    <g data-name="그룹 117">
        <path data-name="패스 124" d="M-10.589-7.729c-.118 6.048-.235 16.054 0 22.761 4.573.66 16.065.66 19.583 0 .469-5.5.469-34.307 0-39.695-6.918-.33-42.568-.33-50.073 0a100.736 100.736 0 0 0 0 16.823c5.629.22 26.5.33 30.49.11m22.515 29.25c-5.863-.33-51.363-.44-56.172 0a58.552 58.552 0 0 0 0 16.934c1.759.11 9.147.22 18.177.33-.235 10.007-.118 24.3.235 28.149 4.573.66 16.065.66 19.583 0 .352-3.848.469-18.143.235-28.149 8.678-.11 15.832-.22 17.942-.33.938-3.959.82-12.535 0-16.934M81.114-7.729c-.118 6.048-.235 16.054 0 22.761 4.573.66 16.065.66 19.583 0 .469-5.5.469-34.307 0-39.695-6.918-.33-71.885-.33-79.39 0a100.736 100.736 0 0 0 0 16.823c5.629.22 55.819.33 59.806.11m22.517 29.25c-5.863-.33-80.68-.44-85.489 0a58.554 58.554 0 0 0 0 16.934c1.994.22 16.417.33 32.835.33-.235 10.007-.117 24.3.235 28.149 4.574.66 16.066.66 19.584 0 .351-3.848.469-18.143.235-28.149 16.065 0 30.137-.11 32.6-.33.938-3.959.82-12.535 0-16.934M202.6-3.77c-1.993-.22-5.98-.44-10.085-.44-.117-11.106-.235-20.452-.586-22.542a95.976 95.976 0 0 0-19.466 0c-.469 5.5-.469 62.9 0 68.285a143.466 143.466 0 0 0 19.466 0c.351-2.419.586-14.845.586-28.48 4.1 0 8.092-.22 10.085-.44.587-2.309.587-13.964 0-16.383m-37.523 30.128a95.359 95.359 0 0 0 0-16.384c-5.042-.22-26.737-.22-32.483 0a173.1 173.1 0 0 1 0-19.133c3.869.11 22.75.11 28.144 0a123.782 123.782 0 0 0 0-16.164c-7.974-.44-42.685-.44-48.314 0-.821 9.786-.821 41.894 0 51.681 7.74.44 45.851.44 52.653 0M134.94 49.01c.235-2.969.117-11.436 0-15.065a100.643 100.643 0 0 0-19.936 0c-.587 6.6-.469 24.851 0 32.328 8.443.44 70.126.44 78.1 0a70.854 70.854 0 0 0 0-17.263c-5.16-.22-52.77-.22-58.165 0" transform="translate(675.958 42.159)" style="fill:#2b2e34"/>
    </g>
</svg>
