<?xml version="1.0" encoding="utf-8"?>
<!-- Generator: Adobe Illustrator 25.3.1, SVG Export Plug-In . SVG Version: 6.00 Build 0)  -->
<svg version="1.1" id="레이어_1" xmlns="http://www.w3.org/2000/svg" xmlns:xlink="http://www.w3.org/1999/xlink" x="0px"
	 y="0px" viewBox="0 0 323 323" style="enable-background:new 0 0 323 323;" xml:space="preserve">
<style type="text/css">
	.st0{fill:#69D974;}
	.st1{enable-background:new    ;}
	.st2{fill:#FFFFFF;}
</style>
<g transform="translate(-21 -7157)">
	<circle class="st0" cx="182.5" cy="7318.5" r="161.5"/>
	<g class="st1">
		<path class="st2" d="M186.8,7233.1c0,16.2-16.4,38.8-27.2,48.9c-0.9,0.9-2.1,1.7-3.4,2.6c-1.2,0.7-2.4,0.7-3.2,0.7
			c-3,0-7.6-4-7.6-7.8c0-1.5,1-2.8,2.2-4.4c4.3-5.2,11.2-12.1,14.8-17.1l-0.2-0.2c-1.9,0.9-4.4,1.3-6.7,1.3
			c-12.8,0-22.4-11.3-22.4-24c0-13.9,11-26.5,26.9-26.5C176.4,7206.5,186.8,7218.8,186.8,7233.1z M170.1,7233.1
			c0-6-3.7-11.1-10.2-11.1c-6.1,0-10.2,4.9-10.2,11.1c0,5.7,3.4,11.1,10.2,11.1C166,7244.2,170.1,7239.4,170.1,7233.1z"/>
	</g>
	<g class="st1">
		<path class="st2" d="M219.5,7271.1c0,1.1-0.4,1.4-1.5,1.5l-22.4,0.5c-1.1,0.1-1.5-0.4-1.5-1.5l-0.4-25.1c0-1.1,0.4-1.5,1.5-1.5
			l23.5-0.5c1.1,0,1.5,0.4,1.5,1.5v3.3c0,1.1-0.4,1.5-1.5,1.5l-18.2,0.4l0.2,15.5l17.2-0.4c1.1-0.1,1.5,0.4,1.5,1.5V7271.1z
			 M202.7,7294.2c-1.1,0-1.5-0.4-1.5-1.5v-14.9c0-1.1,0.4-1.5,1.5-1.5h3.8c1.1,0,1.5,0.4,1.5,1.5v10l23.5-0.4c1,0,1.4,0.3,1.4,1.4
			v3.5c0,1.1-0.3,1.4-1.3,1.4L202.7,7294.2z M232.9,7264v10.7c0,1.1-0.4,1.5-1.5,1.5h-3.8c-1.1,0-1.5-0.4-1.5-1.5v-28.2
			c0-1.1,0.4-1.5,1.5-1.5h3.8c1.1,0,1.5,0.4,1.5,1.5v11.2l4-0.2c1-0.1,1.4,0.3,1.4,1.4v3.5c0,1.1-0.3,1.4-1.4,1.4L232.9,7264z"/>
	</g>
</g>
</svg>
