<?xml version="1.0" encoding="utf-8"?>
<!-- Generator: Adobe Illustrator 25.3.1, SVG Export Plug-In . SVG Version: 6.00 Build 0)  -->
<svg version="1.1" id="레이어_1" xmlns="http://www.w3.org/2000/svg" xmlns:xlink="http://www.w3.org/1999/xlink" x="0px"
	 y="0px" viewBox="0 0 220 220" style="enable-background:new 0 0 220 220;" xml:space="preserve">
<style type="text/css">
	.st0{fill:#69D974;}
	.st1{fill:#F98C56;}
	.st2{enable-background:new    ;}
	.st3{fill:#FFFFFF;}
</style>
<g transform="translate(-508 -844)">
	<path class="st0" d="M528,844h180c11,0,20,9,20,20v180c0,11-9,20-20,20H528c-11,0-20-9-20-20V864C508,853,517,844,528,844z"/>
	<path class="st1" d="M530,844h58v58h-58V844z"/>
	<g class="st2">
		<path class="st3" d="M553.9,870.4h3.1c0.6,0,1.3,0,2.1-0.2c0.7-0.1,1.4-0.3,2-0.6c0.6-0.3,1.1-0.7,1.6-1.3
			c0.4-0.5,0.6-1.2,0.6-1.9c0-1.4-0.4-2.3-1.2-2.9c-0.4-0.3-0.9-0.5-1.4-0.6c-0.5-0.1-1.1-0.2-1.6-0.2c-0.6,0-1.3,0-2,0.1
			c-0.7,0.1-1.5,0.3-2.2,0.5c-0.7,0.3-1.3,0.4-1.8,0.6c-0.6,0.2-1.1,0.4-1.5,0.7l-0.4-5.2c1.1-0.4,2.4-0.8,3.8-1.1
			c1.4-0.3,2.7-0.4,4.1-0.4c1.3,0,2.6,0.2,3.9,0.4c1.3,0.4,2.4,0.8,3.4,1.5c0.9,0.7,1.7,1.6,2.3,2.6c0.6,1.1,0.9,2.4,0.9,4
			c0,1.4-0.4,2.6-1.3,3.7c-0.9,1.1-1.9,2.1-3,2.8c1.4,0.7,2.5,1.7,3.3,2.8c0.8,1.2,1.2,2.7,1.2,4.4c0,1.7-0.4,3.1-1,4.2
			c-0.7,1.1-1.5,2.1-2.5,2.8c-1.1,0.6-2.3,1.1-3.7,1.4c-1.4,0.4-2.8,0.5-4.2,0.5s-2.8-0.1-4.2-0.4c-1.5-0.3-2.8-0.6-3.9-0.9
			c0.1-1,0.2-1.9,0.3-2.9c0-0.9,0.1-1.8,0.2-2.8c0.4,0.3,0.8,0.6,1.4,0.8c0.5,0.3,1.1,0.5,1.7,0.7c0.6,0.2,1.3,0.4,2,0.5
			c0.7,0.1,1.4,0.2,2.1,0.2c0.7,0,1.5,0,2.2-0.2c0.7-0.1,1.3-0.4,1.8-0.7c0.5-0.4,1-0.8,1.4-1.4c0.4-0.5,0.5-1.1,0.5-1.9
			c0-1-0.2-1.8-0.6-2.4c-0.4-0.6-0.9-1.1-1.5-1.5c-0.5-0.3-1.2-0.5-1.9-0.7c-0.8-0.1-1.6-0.2-2.3-0.2h-3.3V870.4z"/>
	</g>
</g>
</svg>
