<?xml version="1.0" encoding="utf-8"?>
<!-- Generator: Adobe Illustrator 25.3.1, SVG Export Plug-In . SVG Version: 6.00 Build 0)  -->
<svg version="1.1" id="레이어_1" xmlns="http://www.w3.org/2000/svg" xmlns:xlink="http://www.w3.org/1999/xlink" x="0px"
	 y="0px" viewBox="0 0 220 220" style="enable-background:new 0 0 220 220;" xml:space="preserve">
<style type="text/css">
	.st0{fill:#69D974;}
	.st1{fill:#F98C56;}
	.st2{enable-background:new    ;}
	.st3{fill:#FFFFFF;}
</style>
<path class="st0" d="M20,0h180c11,0,20,9,20,20v180c0,11-9,20-20,20H20c-11,0-20-9-20-20V20C0,9,9,0,20,0z"/>
<path class="st1" d="M22,0h58v58H22V0z"/>
<g class="st2">
	<path class="st3" d="M41.9,39.6c1.2-1.2,2.6-2.4,4.1-3.7c1.5-1.2,2.9-2.5,4.3-3.8c1.3-1.3,2.5-2.8,3.4-4.4c0.9-1.6,1.4-3.3,1.4-5.3
		c0-0.6-0.1-1.1-0.4-1.7c-0.3-0.4-0.6-0.8-1-1.2c-0.4-0.3-0.9-0.6-1.4-0.7c-0.5-0.1-1.1-0.2-1.6-0.2c-1.2,0-2.6,0.3-3.9,0.7
		c-1.4,0.5-2.6,1.1-3.6,1.7l-0.5-5.2c1.5-0.6,2.9-1.1,4.4-1.5c1.4-0.4,2.9-0.5,4.3-0.5c1.3,0,2.6,0.2,3.9,0.6c1.2,0.4,2.2,1,3.2,1.7
		c0.9,0.7,1.6,1.7,2.1,2.8c0.5,1.1,0.8,2.4,0.8,3.9c0,1.8-0.4,3.4-1.2,5.1c-0.9,1.7-1.9,3.3-3.2,4.8s-2.6,2.9-3.9,4.2
		c-1.4,1.3-2.6,2.4-3.7,3.3c2,0,4,0,6.2,0c2.1,0.1,4.2,0.1,6.2,0.1V45H41.9V39.6z"/>
</g>
</svg>
