<?xml version="1.0" encoding="utf-8"?>
<!-- Generator: Adobe Illustrator 25.3.1, SVG Export Plug-In . SVG Version: 6.00 Build 0)  -->
<svg version="1.1" id="레이어_1" xmlns="http://www.w3.org/2000/svg" xmlns:xlink="http://www.w3.org/1999/xlink" x="0px"
	 y="0px" viewBox="0 0 323 323" style="enable-background:new 0 0 323 323;" xml:space="preserve">
<style type="text/css">
	.st0{fill:#69D974;}
	.st1{enable-background:new    ;}
	.st2{fill:#FFFFFF;}
</style>
<g id="그룹_498" transform="translate(-21 -1973)">
	<circle id="타원_40" class="st0" cx="182.5" cy="2134.5" r="161.5"/>
	<g class="st1">
		<path class="st2" d="M182,2042.1c0,6.7-2.9,12.6-8.8,16.4c7.7,3.5,13.1,10.7,13.1,19.2c0,12.8-11.8,23.6-27,23.6
			c-15.8,0-25.7-11.7-25.7-20.1c0-4.2,4.4-7.2,8.2-7.2c7.3,0,5.6,12.5,17.7,12.5c5.6,0,10.1-4.3,10.1-10c0-15-18.2-4-18.2-16.6
			c0-11.2,15.2-3.6,15.2-15.5c0-4.1-2.9-7.2-7.7-7.2c-10.2,0-8.8,10.5-16,10.5c-4.4,0-7-4-7-7.9c0-8.3,11.4-17.3,23.3-17.3
			C174.7,2022.5,182,2033.8,182,2042.1z"/>
	</g>
	<g class="st1">
		<path class="st2" d="M220.6,2087.1c0,1.1-0.4,1.4-1.5,1.5l-22.4,0.5c-1.1,0.1-1.5-0.4-1.5-1.5l-0.4-25.1c0-1.1,0.4-1.5,1.5-1.5
			l23.5-0.5c1.1,0,1.5,0.4,1.5,1.5v3.3c0,1.1-0.4,1.5-1.5,1.5l-18.2,0.4l0.2,15.5l17.2-0.4c1.1-0.1,1.5,0.4,1.5,1.5V2087.1z
			 M203.7,2110.2c-1.1,0-1.5-0.4-1.5-1.5v-14.9c0-1.1,0.4-1.5,1.5-1.5h3.8c1.1,0,1.5,0.4,1.5,1.5v10l23.5-0.4c1,0,1.3,0.3,1.3,1.4
			v3.5c0,1.1-0.3,1.4-1.3,1.4L203.7,2110.2z M233.9,2080v10.7c0,1.1-0.4,1.5-1.5,1.5h-3.8c-1.1,0-1.5-0.4-1.5-1.5v-28.2
			c0-1.1,0.4-1.5,1.5-1.5h3.8c1.1,0,1.5,0.4,1.5,1.5v11.2l4.1-0.2c1-0.1,1.3,0.3,1.3,1.4v3.5c0,1.1-0.3,1.4-1.3,1.4L233.9,2080z"/>
	</g>
</g>
</svg>
