<?xml version="1.0" encoding="utf-8"?>
<!-- Generator: Adobe Illustrator 25.3.1, SVG Export Plug-In . SVG Version: 6.00 Build 0)  -->
<svg version="1.1" id="레이어_1" xmlns="http://www.w3.org/2000/svg" xmlns:xlink="http://www.w3.org/1999/xlink" x="0px"
	 y="0px" viewBox="0 0 323 323" style="enable-background:new 0 0 323 323;" xml:space="preserve">
<style type="text/css">
	.st0{fill:#69D974;}
	.st1{enable-background:new    ;}
	.st2{fill:#FFFFFF;}
</style>
<g id="그룹_500" transform="translate(-21 -3701)">
	<circle id="타원_42" class="st0" cx="182.5" cy="3862.5" r="161.5"/>
	<g class="st1">
		<path class="st2" d="M156.4,3777.9c2.6-0.5,5.4-1.1,8-1.1c12.9,0,22.1,10.3,22.1,22.8c0,17.9-9.8,29.6-28.4,29.6
			c-7.6,0-23.5-4.9-23.5-14.3c0-4,3.3-7.3,7.3-7.3c4.3,0,9.4,6.8,16.6,6.8c7.5,0,11.3-7.3,11.3-14c0-6.4-3.6-10.8-10.3-10.8
			c-6.2,0-7.2,3.5-12.6,3.5c-4.2,0-6.3-3.2-6.3-5c0-1.4,0.2-2.5,0.3-3.6l2.7-22.6c1.2-8.3,3.2-10.2,8.3-10.2h25.8
			c4.9,0,7.8,2.9,7.8,6.7c0,7.4-5.6,8-7.5,8H158L156.4,3777.9z"/>
	</g>
	<g class="st1">
		<path class="st2" d="M221.6,3815.1c0,1.1-0.4,1.4-1.5,1.5l-22.4,0.5c-1.1,0.1-1.5-0.4-1.5-1.5l-0.4-25.1c0-1.1,0.4-1.5,1.5-1.5
			l23.5-0.5c1.1,0,1.5,0.4,1.5,1.5v3.3c0,1.1-0.4,1.5-1.5,1.5l-18.2,0.4l0.2,15.5l17.2-0.4c1.1-0.1,1.5,0.4,1.5,1.5V3815.1z
			 M204.7,3838.2c-1.1,0-1.5-0.4-1.5-1.5v-14.9c0-1.1,0.4-1.5,1.5-1.5h3.8c1.1,0,1.5,0.4,1.5,1.5v10l23.5-0.4c1,0,1.4,0.3,1.4,1.4
			v3.5c0,1.1-0.3,1.4-1.3,1.4L204.7,3838.2z M234.9,3808v10.7c0,1.1-0.4,1.5-1.5,1.5h-3.8c-1.1,0-1.5-0.4-1.5-1.5v-28.2
			c0-1.1,0.4-1.5,1.5-1.5h3.8c1.1,0,1.5,0.4,1.5,1.5v11.2l4.1-0.2c1-0.1,1.3,0.3,1.3,1.4v3.5c0,1.1-0.3,1.4-1.3,1.4L234.9,3808z"/>
	</g>
</g>
</svg>
