<?xml version="1.0" encoding="utf-8"?>
<!-- Generator: Adobe Illustrator 25.3.1, SVG Export Plug-In . SVG Version: 6.00 Build 0)  -->
<svg version="1.1" id="레이어_1" xmlns="http://www.w3.org/2000/svg" xmlns:xlink="http://www.w3.org/1999/xlink" x="0px"
	 y="0px" viewBox="0 0 220 220" style="enable-background:new 0 0 220 220;" xml:space="preserve">
<style type="text/css">
	.st0{fill:#69D974;}
	.st1{fill:#F98C56;}
	.st2{enable-background:new    ;}
	.st3{fill:#FFFFFF;}
</style>
<g transform="translate(-734 -844)">
	<path class="st0" d="M754,844h180c11,0,20,9,20,20v180c0,11-9,20-20,20H754c-11,0-20-9-20-20V864C734,853,743,844,754,844z"/>
	<path class="st1" d="M755,844h58v58h-58V844z"/>
	<g class="st2">
		<path class="st3" d="M786.8,882h-13.2v-4.3l11.9-19.4h7.2v18.8h3.5v4.8h-3.5v7.1h-5.9V882z M786.7,865.9l-6.6,11.1l6.7,0.1
			L786.7,865.9z"/>
	</g>
</g>
</svg>
