<?xml version="1.0" encoding="utf-8"?>
<!-- Generator: Adobe Illustrator 25.3.1, SVG Export Plug-In . SVG Version: 6.00 Build 0)  -->
<svg version="1.1" id="레이어_1" xmlns="http://www.w3.org/2000/svg" xmlns:xlink="http://www.w3.org/1999/xlink" x="0px"
	 y="0px" viewBox="0 0 323 323" style="enable-background:new 0 0 323 323;" xml:space="preserve">
<style type="text/css">
	.st0{fill:#FEAE00;}
	.st1{enable-background:new    ;}
	.st2{fill:#FFFFFF;}
</style>
<g id="그룹_499" transform="translate(-21 -2837)">
	<circle id="타원_41" class="st0" cx="182.5" cy="2998.5" r="161.5"/>
	<g class="st1">
		<path class="st2" d="M134.5,2947.2c-5.2,0-7.5-3.5-7.5-6.3c0-2.4,0.9-3.6,1.5-4.7l24-43.4c2.4-4.3,5.3-6.2,10.9-6.2
			c6.2,0,12.3,4,12.3,13.7v32.8h1.8c4.2,0,7.5,2.8,7.5,7.1c0,4.3-3.3,7.1-7.5,7.1h-1.8v9.1c0,5.7-2.2,8.3-7.7,8.3s-7.7-2.7-7.7-8.3
			v-9.1H134.5z M160.3,2903.2h-0.2l-14.4,29.9h14.7V2903.2z"/>
	</g>
	<g class="st1">
		<path class="st2" d="M215.6,2951.1c0,1.1-0.4,1.4-1.5,1.5l-22.4,0.5c-1.1,0.1-1.5-0.4-1.5-1.5l-0.4-25.1c0-1.1,0.4-1.5,1.5-1.5
			l23.5-0.5c1.1,0,1.5,0.4,1.5,1.5v3.3c0,1.1-0.4,1.5-1.5,1.5l-18.2,0.4l0.2,15.5l17.2-0.4c1.1-0.1,1.5,0.4,1.5,1.5V2951.1z
			 M198.8,2974.2c-1.1,0-1.5-0.4-1.5-1.5v-14.9c0-1.1,0.4-1.5,1.5-1.5h3.8c1.1,0,1.5,0.4,1.5,1.5v10l23.5-0.4c1,0,1.4,0.3,1.4,1.4
			v3.5c0,1.1-0.3,1.4-1.3,1.4L198.8,2974.2z M229,2944v10.7c0,1.1-0.4,1.5-1.5,1.5h-3.8c-1.1,0-1.5-0.4-1.5-1.5v-28.2
			c0-1.1,0.4-1.5,1.5-1.5h3.8c1.1,0,1.5,0.4,1.5,1.5v11.2l4.1-0.2c1-0.1,1.3,0.3,1.3,1.4v3.5c0,1.1-0.3,1.4-1.3,1.4L229,2944z"/>
	</g>
</g>
</svg>
