<?xml version="1.0" encoding="utf-8"?>
<!-- Generator: Adobe Illustrator 25.3.1, SVG Export Plug-In . SVG Version: 6.00 Build 0)  -->
<svg version="1.1" id="레이어_1" xmlns="http://www.w3.org/2000/svg" xmlns:xlink="http://www.w3.org/1999/xlink" x="0px"
	 y="0px" viewBox="0 0 323 323" style="enable-background:new 0 0 323 323;" xml:space="preserve">
<style type="text/css">
	.st0{fill:#FEAE00;}
	.st1{enable-background:new    ;}
	.st2{fill:#FFFFFF;}
</style>
<g transform="translate(-21 -1109)">
	<circle class="st0" cx="182.5" cy="1270.5" r="161.5"/>
	<g class="st1">
		<path class="st2" d="M179.5,1221.9c4.7,0,8.3,2.1,8.3,7.1s-3.6,7.1-7.7,7.1h-35.7c-4.7,0-8.3-2.1-8.3-7.1c0-2.2,1.4-4.2,2.5-5.5
			c8.9-10.6,18.5-20.2,26.6-32c1.9-2.8,3.7-6.1,3.7-10c0-4.4-3.3-8.2-7.7-8.2c-12.3,0-6.4,17.3-16.7,17.3c-5.1,0-7.8-3.6-7.8-7.8
			c0-13.5,12-24.3,25.1-24.3c13.2,0,23.8,8.7,23.8,22.3c0,14.9-16.6,29.6-25.7,41.1H179.5z"/>
	</g>
	<g class="st1">
		<path class="st2" d="M221.6,1223.1c0,1.1-0.4,1.4-1.5,1.5l-22.4,0.5c-1.1,0.1-1.5-0.4-1.5-1.5l-0.4-25.1c0-1.1,0.4-1.5,1.5-1.5
			l23.5-0.5c1.1,0,1.5,0.4,1.5,1.5v3.3c0,1.1-0.4,1.5-1.5,1.5l-18.2,0.4l0.2,15.5l17.2-0.4c1.1-0.1,1.5,0.4,1.5,1.5V1223.1z
			 M204.7,1246.2c-1.1,0-1.5-0.4-1.5-1.5v-14.9c0-1.1,0.4-1.5,1.5-1.5h3.8c1.1,0,1.5,0.4,1.5,1.5v10l23.5-0.4c1,0,1.4,0.3,1.4,1.4
			v3.5c0,1.1-0.3,1.4-1.3,1.4L204.7,1246.2z M234.9,1216v10.7c0,1.1-0.4,1.5-1.5,1.5h-3.8c-1.1,0-1.5-0.4-1.5-1.5v-28.2
			c0-1.1,0.4-1.5,1.5-1.5h3.8c1.1,0,1.5,0.4,1.5,1.5v11.2l4.1-0.2c1-0.1,1.3,0.3,1.3,1.4v3.5c0,1.1-0.3,1.4-1.3,1.4L234.9,1216z"/>
	</g>
</g>
</svg>
