<?xml version="1.0" encoding="utf-8"?>
<!-- Generator: Adobe Illustrator 25.3.1, SVG Export Plug-In . SVG Version: 6.00 Build 0)  -->
<svg version="1.1" id="레이어_1" xmlns="http://www.w3.org/2000/svg" xmlns:xlink="http://www.w3.org/1999/xlink" x="0px"
	 y="0px" viewBox="0 0 323 323" style="enable-background:new 0 0 323 323;" xml:space="preserve">
<style type="text/css">
	.st0{fill:#69D974;}
	.st1{enable-background:new    ;}
	.st2{fill:#FFFFFF;}
</style>
<g id="그룹_502" transform="translate(-21 -5429)">
	<circle id="타원_47" class="st0" cx="182.5" cy="5590.5" r="161.5"/>
	<g class="st1">
		<path class="st2" d="M169.2,5494.6h-27.4c-5.8,0-7.9-3.7-7.9-7.4c0-3.7,2-7.4,7.9-7.4h38.7c5.5,0,7.7,4.9,7.7,7.7
			c0,2.1-1.2,4.4-2.5,7.1l-26.5,53.9c-3,6-4.2,8.1-9,8.1c-5.9,0-8.9-4.5-8.9-7.6c0-1.3,0.3-2.2,1.1-3.7L169.2,5494.6z"/>
	</g>
	<g class="st1">
		<path class="st2" d="M218.7,5543.1c0,1.1-0.4,1.4-1.5,1.5l-22.4,0.5c-1.1,0.1-1.5-0.4-1.5-1.5l-0.4-25.1c0-1.1,0.4-1.5,1.5-1.5
			l23.5-0.5c1.1,0,1.5,0.4,1.5,1.5v3.3c0,1.1-0.4,1.5-1.5,1.5l-18.2,0.4l0.2,15.5l17.2-0.4c1.1-0.1,1.5,0.4,1.5,1.5V5543.1z
			 M201.9,5566.2c-1.1,0-1.5-0.4-1.5-1.5v-14.9c0-1.1,0.4-1.5,1.5-1.5h3.8c1.1,0,1.5,0.4,1.5,1.5v10l23.5-0.4c1,0,1.4,0.3,1.4,1.4
			v3.5c0,1.1-0.3,1.4-1.3,1.4L201.9,5566.2z M232.1,5536v10.7c0,1.1-0.4,1.5-1.5,1.5h-3.8c-1.1,0-1.5-0.4-1.5-1.5v-28.2
			c0-1.1,0.4-1.5,1.5-1.5h3.8c1.1,0,1.5,0.4,1.5,1.5v11.2l4.1-0.2c1-0.1,1.3,0.3,1.3,1.4v3.5c0,1.1-0.3,1.4-1.3,1.4L232.1,5536z"/>
	</g>
</g>
</svg>
