<?xml version="1.0" encoding="utf-8"?>
<!-- Generator: Adobe Illustrator 25.3.1, SVG Export Plug-In . SVG Version: 6.00 Build 0)  -->
<svg version="1.1" id="Layer_1" xmlns="http://www.w3.org/2000/svg" xmlns:xlink="http://www.w3.org/1999/xlink" x="0px" y="0px"
	 viewBox="0 0 448 358.6" style="enable-background:new 0 0 448 358.6;" xml:space="preserve">
<style type="text/css">
	.st0{fill:url(#SVGID_1_);}
	.st1{fill:url(#SVGID_2_);}
	.st2{fill:#ED2442;}
	.st3{fill:url(#SVGID_3_);}
	.st4{fill:#FFC900;}
	.st5{fill:url(#SVGID_4_);}
	.st6{fill:#780000;}
	.st7{fill:#B8001C;}
	.st8{fill:#FFFFFF;}
	.st9{fill:url(#SVGID_5_);}
	.st10{fill:#FF6669;}
	.st11{fill:url(#SVGID_6_);}
	.st12{fill:#690085;}
	.st13{fill:#FFB800;}
	.st14{fill:#FF3B8A;}
	.st15{fill:url(#SVGID_7_);}
	.st16{fill:#C290FF;}
	.st17{fill:#6FCC00;}
	.st18{fill:#FFCC15;}
	.st19{fill:#34BDFF;}
	.st20{fill:#FF8645;}
</style>
<g>
	
		<linearGradient id="SVGID_1_" gradientUnits="userSpaceOnUse" x1="-6888.9863" y1="4794.334" x2="-6864.3164" y2="4750.6328" gradientTransform="matrix(0.1572 -0.9876 0.9876 0.1572 -3509.333 -7353.3433)">
		<stop  offset="0.4011" style="stop-color:#ED2442"/>
		<stop  offset="0.6082" style="stop-color:#E71C3F"/>
		<stop  offset="0.932" style="stop-color:#D80635"/>
		<stop  offset="1" style="stop-color:#D40033"/>
	</linearGradient>
	<path class="st0" d="M121.1,197.2c0,0-28.3-12.3-43.6-33.8c0,0-7,2.9-8.8-1.3s3-4.3,3-4.3s-7.7-3.4-5-7.5c2.7-4.1,8.1,0.8,8.1,0.8
		s-5.7-8.4,1.2-9.5c3.8-0.6,5.9,6,5.9,6s2.8-5.9,6.9-3.9c5.8,2.9-1,8.9-1,8.9s17.6,23.1,40,30.8L121.1,197.2z"/>
	
		<linearGradient id="SVGID_2_" gradientUnits="userSpaceOnUse" x1="-6952.4971" y1="7186.2949" x2="-6927.8271" y2="7142.5942" gradientTransform="matrix(-9.870000e-02 -0.9951 -0.9951 9.870000e-02 6779.2285 -7427.6514)">
		<stop  offset="0.4011" style="stop-color:#ED2442"/>
		<stop  offset="0.6082" style="stop-color:#E71C3F"/>
		<stop  offset="0.932" style="stop-color:#D80635"/>
		<stop  offset="1" style="stop-color:#D40033"/>
	</linearGradient>
	<path class="st1" d="M336.2,194.8c0,0,29-10.6,45.5-31.2c0,0,6.8,3.3,8.9-0.8s-2.7-4.4-2.7-4.4s7.9-2.9,5.4-7.2s-8.1,0.3-8.1,0.3
		s6.2-8.1-0.7-9.5c-3.8-0.8-6.2,5.6-6.2,5.6s-2.5-6.1-6.7-4.3c-6,2.5,0.5,8.9,0.5,8.9s-18.9,22-41.8,28.4L336.2,194.8z"/>
	<g>
		<path class="st2" d="M266,187.5c0,0,16.5,33.4,34.3,73.1c-0.9,5.2-4,11.5-4,11.5l-28.3,1.6c0,0-8.5-6.1-14.9-11.1
			c-9.1-27-19.3-57-24.4-70.2L266,187.5z"/>
		<g>
			
				<linearGradient id="SVGID_3_" gradientUnits="userSpaceOnUse" x1="-5601.71" y1="91.8923" x2="-5584.2632" y2="29.2626" gradientTransform="matrix(-1 0 -0.2175 -1 -5274.9453 359.9685)">
				<stop  offset="0.4011" style="stop-color:#FFAB00"/>
				<stop  offset="0.6624" style="stop-color:#FFA300"/>
				<stop  offset="1" style="stop-color:#FF9100"/>
			</linearGradient>
			<path class="st3" d="M299.3,257.8c2.7,6.2,2.8,6.4,5.5,12.9c0,0,24.5-12.8,45.9,7.4s0,48.8,0,48.8l-77-0.6c0,0-10.4-32.3-21.7-67
				C269.7,261.1,291.1,259.5,299.3,257.8z"/>
			<polygon class="st2" points="282.8,275.8 323.5,294.3 292.5,316.1 			"/>
			<path class="st4" d="M328.8,274.7c-2.2,2.9,0.2,8.3,5.4,12.1c5.2,3.8,11.2,4.5,13.4,1.6c2.2-2.9-0.2-8.3-5.4-12.1
				C337,272.6,331,271.8,328.8,274.7z"/>
		</g>
	</g>
	<g>
		<path class="st2" d="M201.5,187.5c0,0-17.6,34.8-36.4,76.1c0.9,5.4,4.2,12,4.2,12l29.9,1.6c0,0,9-6.4,15.8-11.6
			c9.7-28.1,20.6-59.3,26-73L201.5,187.5z"/>
		<g>
			
				<linearGradient id="SVGID_4_" gradientUnits="userSpaceOnUse" x1="-13486.5498" y1="90.5475" x2="-13469.584" y2="29.6443" gradientTransform="matrix(1 0 0.2175 -1 13625.9053 359.9685)">
				<stop  offset="0.4011" style="stop-color:#FFAB00"/>
				<stop  offset="0.6624" style="stop-color:#FFA300"/>
				<stop  offset="1" style="stop-color:#FF9100"/>
			</linearGradient>
			<path class="st5" d="M166.9,259.3c-2.8,6-2.9,6.2-5.8,12.4c0,0-25.8-12.3-48.4,7.1c-22.5,19.4,0,47,0,47l81.2-0.6
				c0,0,10.9-31.1,22.9-64.6C198,262.5,175.5,261,166.9,259.3z"/>
			<path class="st2" d="M172.5,278.5c0,0-4.8-0.2-9.3,0.6c-0.2,4.7-7.6,29.4-10.4,35.5l10,0.3C171,293.8,172.5,278.5,172.5,278.5z"
				/>
			<path class="st2" d="M181.6,277.5c-0.7,11-7,28.7-10.4,36.6l9.2,0.4c12.2-29.3,10.9-35.6,10.9-35.6S186.8,278.2,181.6,277.5z"/>
			<path class="st4" d="M135.8,275.6c2.3,2.8-0.2,8-5.7,11.7c-5.5,3.7-11.8,4.4-14.2,1.6s0.2-8,5.7-11.7
				C127.1,273.5,133.4,272.8,135.8,275.6z"/>
		</g>
	</g>
	<g>
		<path class="st2" d="M186.2,87.5c0,0-32.5-23.7-57.6,7.5c-25.1,31.2,9.5,61,9.5,61s-35.2,8.3-23.1,42.7
			c10.2,28.8,67.5,28.5,116.9,27.1c49.5-1.4,110.6-7.1,118.1-42.4c3-14.2-4.5-26.2-13.7-29.5c-9.5-3.4-20,0.7-20,0.7
			s32.2-41.2,0-68.5c-32.2-27.3-61-2.7-61-2.7s-8.1-12.9-34.6-15.6C194.4,65.1,186.2,87.5,186.2,87.5z"/>
		<g>
			<ellipse cx="233.2" cy="161.2" rx="4.5" ry="2.6"/>
			<path class="st6" d="M218.2,166c0,0,11.8,7.3,29.2,0.6c0,0-7,32.4-14.6,33.3C225.2,200.9,218.2,166,218.2,166z"/>
			<path class="st7" d="M223.6,186.4c2.6,7.5,5.8,14,9.2,13.6c3.3-0.4,6.4-6.6,8.9-13.5C239.4,184.8,228.7,183.1,223.6,186.4z"/>
		</g>
		<path class="st8" d="M231,138.4c0,15.3-6.6,25.3-22.5,25.3s-24.2-10-24.2-25.3s10.5-27.7,23.4-27.7
			C220.6,110.7,231,123.1,231,138.4z"/>
		<g>
			
				<linearGradient id="SVGID_5_" gradientUnits="userSpaceOnUse" x1="-882.1365" y1="182.0826" x2="-888.2378" y2="201.1492" gradientTransform="matrix(-1 0 0 -1 -691.9797 359.9685)">
				<stop  offset="0.4011" style="stop-color:#ED2442"/>
				<stop  offset="0.6082" style="stop-color:#E71C3F"/>
				<stop  offset="0.932" style="stop-color:#D80635"/>
				<stop  offset="1" style="stop-color:#D40033"/>
			</linearGradient>
			<path class="st9" d="M212.2,168.7c-0.3-3.1-2.2-10.9-14.4-14.7c-12.2-3.8-19.3,2.8-19.3,2.8s-15.1,12.2,6.6,22.4
				C206.8,189.4,213.4,179.6,212.2,168.7z"/>
			<path class="st10" d="M189,155.3c2.5,0.3,3.9,3.1,1.5,4.3s-5.1,0.5-5.5-1.5C184.7,156.1,187.3,155.1,189,155.3z"/>
		</g>
		<path d="M225.8,141.2c0,8.4-4.7,15.2-10.5,15.2c-5.8,0-10.5-6.8-10.5-15.2c0-8.4,4.7-15.2,10.5-15.2S225.8,132.8,225.8,141.2z"/>
		<path class="st8" d="M281.2,138.4c0,15.3-10.5,26-23.4,26c-12.9,0-23.4-10.7-23.4-26s10.5-27.7,23.4-27.7
			C270.7,110.7,281.2,123.1,281.2,138.4z"/>
		<path d="M260.7,141.2c0,8.4-4.7,15.2-10.5,15.2s-10.5-6.8-10.5-15.2c0-8.4,4.7-15.2,10.5-15.2C256,126,260.7,132.8,260.7,141.2z"
			/>
		<g>
			
				<linearGradient id="SVGID_6_" gradientUnits="userSpaceOnUse" x1="274.4114" y1="180.9125" x2="268.31" y2="199.9791" gradientTransform="matrix(1 0 0 -1 0 359.9685)">
				<stop  offset="0.4011" style="stop-color:#ED2442"/>
				<stop  offset="0.6082" style="stop-color:#E71C3F"/>
				<stop  offset="0.932" style="stop-color:#D80635"/>
				<stop  offset="1" style="stop-color:#D40033"/>
			</linearGradient>
			<path class="st11" d="M252.3,169.9c0.3-3.1,2.2-10.9,14.4-14.7c12.2-3.8,19.3,2.8,19.3,2.8s15.1,12.2-6.6,22.4
				C257.8,190.5,251.1,180.8,252.3,169.9z"/>
			<path class="st10" d="M264.9,158.7c-2.2,1.2-2.4,4.4,0.3,4.5c2.7,0.2,4.9-1.5,4.5-3.4C269.2,157.8,266.4,157.9,264.9,158.7z"/>
		</g>
		<path class="st10" d="M148,89c-6.6,0.5-15.5,7.4-15.8,16.3s7.6,9.5,16.6,2.4C157.8,100.7,158.9,88.2,148,89z"/>
		<g>
			<path class="st12" d="M204.9,69.5l7.9-10.9l18.8-24.7l8.2,31.4l2.5,10.6C242.2,75.9,215.4,74.9,204.9,69.5z"/>
			<path class="st13" d="M232,31.9l-13.4,18.6c6.9,0.5,12.9,2.7,18.7,4.6L232,31.9z"/>
			<path class="st14" d="M218.6,50.4l-5.9,8.2c10-0.3,19.5,1.7,27,6.8L237.4,55C232.3,49.9,225.1,47.1,218.6,50.4z"/>
		</g>
		<g>
			
				<linearGradient id="SVGID_7_" gradientUnits="userSpaceOnUse" x1="250.1114" y1="273.6021" x2="254.6212" y2="280.1789" gradientTransform="matrix(1 0 0 -1 0 359.9685)">
				<stop  offset="0.4011" style="stop-color:#ED2442"/>
				<stop  offset="0.6082" style="stop-color:#E71C3F"/>
				<stop  offset="0.932" style="stop-color:#D80635"/>
				<stop  offset="1" style="stop-color:#D40033"/>
			</linearGradient>
			<path class="st15" d="M235.1,77.7c5.6-3.4,8.3-6.4,10.7-15c0.2-0.7,1.9-2.7,5.9-1.3c4,1.5,4.1,2.8,3.7,4.6
				c-1.2,5.3-3.2,8.6-7,11.4c0,0,6.2-2.5,10-9.9c2-3.8,8.5,2.9,7.8,4.4c-2.4,5.1-5.5,7.6-8.6,9.2c0,0,4.9-0.8,10.6-7.9
				c6.5-3.3,9,4.9,7.6,6.7c-5.3,6.9-14.2,12.6-23.9,13.4L235.1,77.7z"/>
			<g>
				<path class="st14" d="M256.2,60c1.1-9.5-7.4-9.7-10,0.7c-0.2,0.6-0.3,1.2-0.5,1.8c2.7,0.8,6,1.9,9.5,3.4
					C255.6,64.2,255.9,62.3,256.2,60z"/>
				<path class="st14" d="M267.8,66.8c2.7-9.3-5.1-11.5-8.5-1.9c-0.3,0.9-0.7,1.7-1.1,2.5c2.5,1.2,5.1,2.7,7.7,4.4
					C266.6,70.4,267.3,68.7,267.8,66.8z"/>
				<path class="st14" d="M275.7,79.7c1.2-1.6,2.3-3.4,3.1-5.1c4.4-9.2-1.8-15.8-8-5.7c-1,1.6-1.9,3-2.9,4.2
					C270.6,75,273.2,77.2,275.7,79.7z"/>
			</g>
		</g>
		<path d="M220.9,97.3c-0.6,0-1.2-0.5-1.2-1.1c0-0.2-0.5-4.7-4-4.9c-1.6-0.1-2.8,0.6-3.6,2c-0.7,1.2-0.8,2.6-0.8,2.6
			c-0.1,0.7-0.7,1.2-1.4,1.1c-0.7-0.1-1.2-0.7-1.1-1.4c0.2-2.5,2-7.2,7-6.8c4.4,0.3,6.1,4.8,6.3,7.1c0.1,0.7-0.4,1.3-1.1,1.4
			C220.9,97.3,220.9,97.3,220.9,97.3z"/>
		<path d="M253.6,97.3c-0.6,0-1.2-0.5-1.2-1.1c0-0.2-0.5-4.7-4-4.9c-1.6-0.1-2.8,0.6-3.6,2c-0.7,1.2-0.8,2.6-0.8,2.6
			c-0.1,0.7-0.7,1.2-1.4,1.1c-0.7-0.1-1.2-0.7-1.1-1.4c0.2-2.5,2-7.2,7-6.8c4.5,0.3,6.1,4.8,6.3,7.1c0.1,0.7-0.4,1.3-1.1,1.4
			C253.7,97.3,253.7,97.3,253.6,97.3z"/>
	</g>
	<g>
		<path class="st16" d="M41.2,242.7l4.6,6.9l7.6,2c5.9,1.5,8.4,8.6,4.7,13.5l-5.1,6.9l0.2,7.9c0.2,6-5.6,10.3-11.3,8.5l-8-2.6
			l-8,2.6c-5.7,1.8-11.4-2.5-11.3-8.5l0.2-7.9l-5.1-6.9c-3.6-4.9-1.2-11.9,4.7-13.5l7.6-2l4.6-6.9C30.2,237.5,37.8,237.5,41.2,242.7
			z"/>
		<path class="st17" d="M103.9,251.5l0.8,5.6l4.1,3.5c3.2,2.7,2.6,7.8-1.1,9.8l-5.2,2.7l-2.3,5c-1.7,3.7-6.6,4.7-9.5,1.8l-4.2-4
			l-5.7-0.8c-4.1-0.6-6.3-5-4.4-8.6l2.5-4.9l-1.1-5.8c-0.8-4.1,2.9-7.7,7-6.9l5.3,1.1l4.9-2.9C98.7,245,103.4,247.3,103.9,251.5z"/>
		<path class="st18" d="M72.3,303.4l0.4,3.4l2.5,2.1c1.9,1.6,1.6,4.7-0.7,5.8l-3.1,1.6l-1.3,3c-1,2.2-3.9,2.8-5.7,1.1l-2.5-2.4
			l-3.4-0.5c-2.4-0.3-3.8-3-2.7-5.1l1.5-2.9l-0.7-3.5c-0.5-2.5,1.7-4.6,4.2-4.1l3.2,0.6l2.9-1.7C69.1,299.5,71.9,300.8,72.3,303.4z"
			/>
	</g>
	<g>
		<path class="st19" d="M406.8,250.6l-4.6,6.9l-7.6,2c-5.9,1.5-8.4,8.6-4.7,13.5l5.1,6.9l-0.2,7.9c-0.2,6,5.6,10.3,11.3,8.5l8-2.6
			l8,2.6c5.7,1.8,11.4-2.5,11.3-8.5l-0.2-7.9l5.1-6.9c3.6-4.9,1.2-11.9-4.7-13.5l-7.6-2l-4.6-6.9
			C417.8,245.5,410.2,245.5,406.8,250.6z"/>
		<path class="st20" d="M349,238.6l-0.8,5.6l-4.1,3.5c-3.2,2.7-2.6,7.8,1.1,9.8l5.2,2.7l2.3,5c1.7,3.7,6.6,4.7,9.5,1.8l4.2-4
			l5.7-0.8c4.1-0.6,6.3-5,4.4-8.6l-2.5-4.9l1.1-5.8c0.8-4.1-2.9-7.7-7-6.9l-5.3,1.1l-4.9-2.9C354.3,232.1,349.6,234.4,349,238.6z"/>
		<path class="st18" d="M377.4,305.1l-0.4,3.4l-2.5,2.1c-1.9,1.6-1.5,4.7,0.7,5.8l3.1,1.6l1.4,3c1,2.2,3.9,2.8,5.7,1.1l2.5-2.4
			l3.4-0.5c2.4-0.3,3.8-3,2.6-5.1l-1.5-2.9l0.6-3.5c0.5-2.5-1.7-4.6-4.2-4.1l-3.2,0.6l-2.9-1.7C380.5,301.2,377.7,302.6,377.4,305.1
			z"/>
	</g>
</g>
</svg>
